<?xml version="1.0" encoding="UTF-8"?>
<!--<!DOCTYPE svg PUBLIC "-//W3C//DTD SVG 1.1//EN" "http://www.w3.org/Graphics/SVG/1.1/DTD/svg11.dtd">-->
<svg xmlns="http://www.w3.org/2000/svg">
  <symbol id="long" viewBox="0 0 247.141 90.394" width="100" height="50" fill="black">
    <path d="M153.923,33.516c1.257-5.229-1.057-10.486-4.885-14.058c-3.286-3.085-6.771-5.143-10.285-8.342
            c-4.456-4.03-9.998-11.058-8.713-11.115c0.629-0.028,8.313,4.514,14.713,6.6c6.428,2.085,9.112,3.771,10.17,4.313
            c1.114,0.572,13.998,13.115,17.654,13.858c3.629,0.715,5.543,0.344,6.399-0.656c0.886-1,1.828-1.801,0.601-2.457
            c-1.8-0.973-6.143-3.687-6.199-4.172c-0.029-0.515,5.142,0.485,6.285,1.114c1.143,0.657,5.229,1.028,6.77,0.686
            c1.572-0.315,4.143-0.457,6.371-0.8c2.257-0.371,3.114-0.6,3.971-0.515c0.857,0.086,1.343,0.4,0.743,0.858
            c-0.629,0.485-5.971,3.714-8.514,4.485c-2.571,0.772-5.999,1.371-7.342,2.2s-2.171,1.2-1.942,1.485
            c0.229,0.258,7.171,1.344,9.627,1.029c2.457-0.315,3.257-0.486,4.2-0.228c0.943,0.285,7.37,2.428,12.141,2.914
            c4.8,0.514,6.828,0,5.285,0.887c-1.542,0.885-3.971,1.885-10.228,2.457c-6.227,0.599-10.284-0.686-17.083-0.287
            c-6.771,0.4-9.37,1.287-13.084,2.371c-3.685,1.058-3.771,1.744-4.142,1.029c-0.343-0.742-1.714-0.858-3.114-0.772
            c-0.542,0.057-0.714,0.029-0.771-0.057c0.028-1.371-1.914-2.258-4.286-2.457c-1.371-0.086-3.313-0.086-3.799-0.057
            C153.781,33.887,153.895,33.629,153.923,33.516z M113.786,87.251v-1.085v-1.343c0-0.372,0.629-0.572,1.886-0.629h4.199
            c0.286,0,0.457-0.2,0.457-0.543c0-0.371-0.171-0.543-0.457-0.543h-3.399c-0.028,0-0.057,0-0.057,0h-0.971
            c-0.685,0-1.314,0.114-1.857,0.343c-0.743,0.314-1.114,0.743-1.114,1.314v5.028c0,0.2,0.115,0.344,0.286,0.4
            c0.057,0.028,0.229,0.057,0.571,0.057c0.286,0,0.457-0.171,0.457-0.457V87.251L113.786,87.251z M175.492,88.337v-3.4
            c0-1.2-0.971-1.8-2.885-1.8h-5.514c-0.315,0-0.457,0.143-0.457,0.457v4.428c0,0.258,0.2,0.458,0.457,0.458h0.371
            c0.258,0,0.457-0.2,0.457-0.458v-3.828h4.656c0.457,0,1.629,0.114,1.629,0.771v3.343c0,0.743-1.115,0.858-1.656,0.858h-3.801h-0.828
            h-0.828c-0.315,0-0.457,0.257-0.457,0.429v0.199c0,0.286,0.143,0.457,0.457,0.457h5.484c0.744,0,1.371-0.143,1.914-0.399
            C175.15,89.509,175.492,88.994,175.492,88.337L175.492,88.337L175.492,88.337z M52.108,87.251v-1.085v-1.343
            c0-0.372,0.628-0.572,1.885-0.629h4.2c0.314,0,0.457-0.2,0.457-0.543c0-0.371-0.143-0.543-0.457-0.543h-3.4c0,0-0.029,0-0.058,0
            h-0.971c-0.657,0-1.286,0.114-1.857,0.343c-0.714,0.314-1.085,0.743-1.085,1.314v5.028c0,0.2,0.085,0.344,0.285,0.4
            c0.029,0.028,0.229,0.057,0.543,0.057c0.314,0,0.457-0.171,0.457-0.457V87.251L52.108,87.251L52.108,87.251z M56.622,86.709
            L56.622,86.709c0,0.371-0.143,0.542-0.486,0.542H55.85h-2.457h-0.285c-0.343,0-0.486-0.171-0.486-0.542
            c0-0.343,0.143-0.543,0.486-0.543h0.2h2.628h0.2C56.479,86.166,56.622,86.366,56.622,86.709L56.622,86.709z M181.436,88.166
            l0.199-0.086l2.629-1.286v-0.028c0.656-0.285,1.113-0.942,1.113-1.714c0-1-0.801-1.886-1.799-1.914h-4.943
            c-1.514,0-1.971,0.942-1.971,1.856v2.972c0,0.457,0.229,0.543,0.6,0.4l0.486-0.229c0.17-0.086,0.199-0.2,0.199-0.372v-2.828
            c0-0.286,0.143-0.743,0.715-0.743h4.828c0.914,0.028,1.113,1.257,0.256,1.6l-6.912,3.4c-0.115,0.028-0.145,0.143-0.145,0.257v0.457
            c0,0.258,0.287,0.429,0.602,0.258c0.742-0.343,1.6-0.771,2.514-1.228c0.229,0.056,0.457,0.114,0.713,0.2l4.172,1.113
            c0.113,0,0.229,0.029,0.371-0.057c0.285-0.286,0.486-0.857,0.143-1.056L181.436,88.166L181.436,88.166L181.436,88.166z
             M77.504,87.48h1.086v1c0,0.514-1.086,0.686-1.457,0.686h-2.914c-1.142,0-1.714-0.229-1.714-0.715v-3.514
            c0-0.858,2.2-0.687,2.856-0.687c0.314,0,0.486-0.199,0.486-0.542c0-0.343-0.171-0.515-0.486-0.515h-1.143
            c-1.085,0-2.999,0.343-2.999,1.743v3.514c0,1.486,1.857,1.771,2.999,1.771h2.886c1.143,0,2.771-0.371,2.771-1.771c0-0.6,0-1.2,0-1.8
            c0-0.285-0.114-0.457-0.457-0.457h-1.914c-0.513,0-0.457,0.457-0.457,0.828C77.047,87.337,77.19,87.48,77.504,87.48L77.504,87.48
            L77.504,87.48z M158.123,88.166l0.172-0.086l2.656-1.286l-0.029-0.028c0.687-0.285,1.144-0.942,1.144-1.714
            c0-1-0.83-1.886-1.83-1.914h-4.942c-1.514,0-1.971,0.942-1.971,1.856v2.972c0,0.457,0.256,0.543,0.6,0.4l0.486-0.229
            c0.17-0.086,0.199-0.2,0.199-0.372v-2.828c0-0.286,0.143-0.743,0.715-0.743h4.856c0.887,0.028,1.086,1.257,0.229,1.6l-6.912,3.4
            c-0.086,0.028-0.144,0.143-0.144,0.257v0.457c0,0.258,0.314,0.429,0.602,0.258c0.742-0.343,1.6-0.771,2.513-1.228
            c0.229,0.056,0.457,0.114,0.713,0.2l4.172,1.113c0.113,0,0.229,0.029,0.371-0.057c0.285-0.286,0.514-0.857,0.143-1.056
            L158.123,88.166L158.123,88.166L158.123,88.166z M211.974,87.537c-0.287,0-0.543,0.228-0.543,0.515v1.429
            c0,0.285,0.256,0.514,0.543,0.514h0.229c0.285,0,0.514-0.229,0.514-0.514v-1.429c0-0.286-0.229-0.515-0.514-0.515H211.974
            L211.974,87.537L211.974,87.537z M207.316,83.308L207.316,83.308c1.43,0.685,3.201,1.914,4.715,1.914c1.6,0,3.285-1.171,4.77-1.971
            c0.145-0.057,0.287-0.085,0.457-0.085c0.486,0,0.744,0.229,0.744,0.714v5.914c0,0.514-0.486,0.457-0.858,0.457
            c-0.285,0-0.457-0.171-0.457-0.457v-5.028c-1.428,0.829-3.113,1.8-4.656,1.8c-1.543,0-3.285-0.971-4.685-1.8v5.028
            c0,0.286-0.172,0.457-0.457,0.457c-0.371,0-0.857,0.058-0.857-0.457v-5.971c0-0.429,0.258-0.657,0.742-0.657
            C206.974,83.166,207.146,83.222,207.316,83.308L207.316,83.308z M205.117,89.765c0-0.086,0-0.142-0.029-0.171l-4.369-6.229
            c-0.115-0.258-0.4-0.314-0.629-0.314c-0.43,0-0.715,0.143-0.887,0.399l-4.084,6.258c-0.029,0.028-0.029,0.057-0.029,0.114
            c0,0.285,0.371,0.485,0.629,0.485c0.143,0,0.285-0.086,0.4-0.257l3.885-5.657l2.885,4.2l-4.199-1.114
            c-0.113,0-0.229-0.029-0.342,0.057c-0.315,0.286-0.516,0.886-0.172,1.058l5.742,1.485c0.143,0.171,0.314,0.315,0.543,0.315
            C204.746,90.394,205.117,90.194,205.117,89.765L205.117,89.765L205.117,89.765z M27.825,83.737c0-0.4-0.143-0.6-0.457-0.6h-6.999
            c-0.429,0-0.457,0.229-0.457,0.6c0,0.315,0.143,0.457,0.457,0.457h2.857v5.6c0,0.514,0.457,0.457,0.829,0.457
            c0.315,0,0.457-0.171,0.457-0.457v-5.6h2.856C27.682,84.194,27.825,84.052,27.825,83.737L27.825,83.737L27.825,83.737z
             M37.567,89.794v-6.199c0-0.314-0.172-0.457-0.486-0.457c-0.343,0-0.8-0.029-0.8,0.457v2.6h-6.285v-2.6
            c0-0.314-0.143-0.457-0.457-0.457c-0.372,0-0.829-0.058-0.829,0.457v6.199c0,0.514,0.457,0.457,0.829,0.457
            c0.314,0,0.457-0.171,0.457-0.457v-2.543h6.285v2.543c0,0.514,0.428,0.457,0.8,0.457C37.395,90.251,37.567,90.08,37.567,89.794
            L37.567,89.794L37.567,89.794z M45.023,86.679c0-0.313-0.171-0.485-0.485-0.485H39.88v-1.257c0-0.515,0.715-0.771,2.114-0.771
            c0.2,0,0.372,0.028,0.571,0.028c0.372,0,0.743,0.056,0.743-0.457c0-0.4-0.143-0.6-0.457-0.6c-1.229,0-3.057-0.144-3.914,0.885
            c-0.229,0.286-0.343,0.601-0.343,0.915v3.543c0,1.399,1.8,1.771,2.885,1.771h4.628c0.315,0,0.458-0.199,0.458-0.628
            c0-0.286-0.143-0.457-0.458-0.457h-4.57c-1.085,0-1.658-0.229-1.658-0.743v-1.172h4.657C44.852,87.251,45.023,87.08,45.023,86.679
            L45.023,86.679L45.023,86.679z M67.677,89.794c0-0.399-0.143-0.628-0.457-0.628h-4.085c-0.571,0-2.228,0.085-2.228-0.8v-4.772
            c0-0.514-0.486-0.457-0.829-0.457c-0.314,0-0.457,0.143-0.457,0.457v4.772c0,1.8,2.114,1.885,3.457,1.885h4.143
            C67.535,90.251,67.677,90.08,67.677,89.794L67.677,89.794L67.677,89.794z M70.163,89.794v-6.199c0-0.314-0.143-0.457-0.457-0.457
            c-0.371,0-0.828-0.058-0.828,0.457v6.199c0,0.514,0.457,0.457,0.828,0.457C70.02,90.251,70.163,90.08,70.163,89.794L70.163,89.794
            L70.163,89.794z M89.817,89.794v-6.199c0-0.314-0.143-0.457-0.457-0.457c-0.372,0-0.829-0.029-0.829,0.457v2.6h-6.285v-2.6
            c0-0.314-0.143-0.457-0.428-0.457c-0.372,0-0.857-0.058-0.857,0.457v6.199c0,0.514,0.485,0.457,0.857,0.457
            c0.286,0,0.428-0.171,0.428-0.457v-2.543h6.285v2.543c0,0.514,0.457,0.457,0.829,0.457C89.674,90.251,89.817,90.08,89.817,89.794
            L89.817,89.794L89.817,89.794z M98.616,83.737c0-0.4-0.143-0.6-0.457-0.6H91.16c-0.428,0-0.457,0.229-0.457,0.6
            c0,0.315,0.143,0.457,0.457,0.457h2.828v5.6c0,0.514,0.486,0.457,0.857,0.457c0.286,0,0.457-0.171,0.457-0.457v-5.6h2.857
            C98.473,84.194,98.616,84.052,98.616,83.737L98.616,83.737L98.616,83.737z M111.472,88.337v-3.285c0-1.829-1.914-1.914-3.314-1.914
            h-2c-2.2,0-3.285,0.656-3.285,1.914v3.285c0,1.657,2.028,1.914,3.285,1.914h2C110.358,90.251,111.472,89.623,111.472,88.337
            L111.472,88.337L111.472,88.337z M110.158,88.308c0,0.571-0.657,0.858-1.942,0.858h-2.057c-1.342,0-1.999-0.286-1.999-0.858V85.08
            c0-0.599,0.657-0.886,1.999-0.886h2.057c1.285,0,1.942,0.286,1.942,0.886V88.308L110.158,88.308L110.158,88.308z M133.213,83.508
            c0-0.258-0.172-0.371-0.516-0.371c-0.4,0-0.629,0.057-0.713,0.143l-3.115,2.971l-3.113-2.971c-0.086-0.086-0.314-0.143-0.715-0.143
            c-0.57,0-0.685,0.428-0.314,0.77l3.486,3.372v2.514c0,0.286,0.172,0.457,0.457,0.457c0.4,0,0.828,0.029,0.828-0.457l0.029-2.514
            l3.484-3.372C133.154,83.794,133.213,83.651,133.213,83.508L133.213,83.508L133.213,83.508z M142.154,88.337v-3.285
            c0-1.829-1.914-1.914-3.285-1.914h-2.029c-2.172,0-3.256,0.656-3.256,1.914v3.285c0,1.657,2.027,1.914,3.256,1.914h2.029
            C141.068,90.251,142.154,89.623,142.154,88.337L142.154,88.337L142.154,88.337z M140.867,88.308c0,0.571-0.656,0.858-1.971,0.858
            h-2.057c-1.314,0-1.971-0.286-1.971-0.858V85.08c0-0.599,0.656-0.886,1.971-0.886h2.057c1.314,0,1.971,0.286,1.971,0.886V88.308
            L140.867,88.308L140.867,88.308z M152.152,88.251v-4.656c0-0.314-0.143-0.457-0.428-0.457c-0.371,0-0.857-0.058-0.857,0.457v4.572
            c0,1.056-1.457,1-2.172,1h-1.799c-0.744,0-2.201,0.028-2.201-1v-4.572c0-0.514-0.484-0.457-0.828-0.457
            c-0.314,0-0.457,0.143-0.457,0.457v4.656c0,0.4,0.058,0.715,0.201,0.972c0.57,1.086,2.769,1,3.971,1.028
            C149.152,90.308,152.152,90.308,152.152,88.251L152.152,88.251L152.152,88.251z M192.775,86.679c0-0.313-0.143-0.485-0.484-0.485
            h-4.656v-1.257c0-0.515,0.713-0.771,2.113-0.771c0.199,0,0.4,0.028,0.57,0.028c0.373,0,0.744,0.056,0.744-0.457
            c0-0.4-0.142-0.6-0.43-0.6c-1.256,0-3.057-0.144-3.941,0.885c-0.229,0.286-0.344,0.601-0.344,0.915v3.543
            c0,1.399,1.801,1.771,2.914,1.771h4.629c0.285,0,0.457-0.199,0.457-0.628c0-0.286-0.172-0.457-0.457-0.457h-4.572
            c-1.113,0-1.684-0.229-1.684-0.743v-1.172h4.656C192.605,87.251,192.775,87.08,192.775,86.679L192.775,86.679L192.775,86.679z
             M227.086,88.48v-0.629c0-1.485-1.971-1.771-3.113-1.771h-1.715c-0.514,0-1.941,0.058-1.941-0.657v-0.485
            c0-0.486,0.686-0.743,2.113-0.743c0.371,0,0.828,0.056,0.828-0.457c0-0.4-0.143-0.6-0.457-0.6c-1.172,0-1.971,0.057-2.4,0.171
            c-0.941,0.257-1.398,0.8-1.398,1.629v0.543c0,0.971,0.885,1.457,1.771,1.571c1.084,0.086,2.17,0.086,3.256,0.143
            c1.172,0.028,1.742,0.257,1.742,0.714v0.601c0,0.457-0.6,0.657-1.799,0.657h-4.486c-0.428,0-0.457,0.285-0.457,0.628
            c0,0.286,0.143,0.457,0.457,0.457h4.486c1.627,0,2.6-0.285,2.914-0.885C227,89.166,227.086,88.851,227.086,88.48L227.086,88.48
            L227.086,88.48z M118.299,86.709c0,0.371-0.171,0.542-0.485,0.542h-0.286h-2.485h-0.285c-0.315,0-0.486-0.171-0.486-0.542
            c0-0.343,0.171-0.543,0.486-0.543h0.2h2.656h0.2C118.128,86.166,118.299,86.366,118.299,86.709L118.299,86.709z M72.219,65.966
            l0.743-0.343l10.399-5.086c2.6-1.143,4.399-3.743,4.399-6.771c0-4-3.199-7.457-7.17-7.543v-0.028H61.164
            c-5.971,0-7.827,3.715-7.827,7.285v11.772c0,1.8,1,2.144,2.399,1.514l1.942-0.914c0.629-0.286,0.743-0.743,0.743-1.399V53.308
            c0-1.171,0.571-2.914,2.885-2.914l19.025-0.028c3.571,0.113,4.315,4.942,0.972,6.285c0.028,0-0.028,0.029-0.028,0.029L54.022,70.022
            c-0.372,0.172-0.515,0.543-0.515,1.029v1.8c0,1.028,1.172,1.657,2.343,1.086c2.914-1.429,6.314-3.086,9.941-4.829
            c0.829,0.2,1.743,0.429,2.829,0.685l16.37,4.4c0.485,0.057,0.942,0.172,1.428-0.257c1.172-1.029,2.028-3.372,0.601-4.086
            L72.219,65.966L72.219,65.966z M39.338,72.194c0-0.343-0.029-0.571-0.086-0.685L22.226,47.423c-0.058-0.114-0.114-0.228-0.172-0.314
            c-0.429-0.971-1.485-1.2-2.485-1.2c-1.6,0-2.714,0.514-3.371,1.514L0.143,71.966C0.057,72.108,0,72.251,0,72.422
            c0,1.143,1.485,1.943,2.514,1.943c0.543,0,1.085-0.344,1.571-1.086l15.226-22.114l11.256,16.485L14.169,63.28
            c-0.485-0.057-0.943-0.2-1.428,0.229c-1.143,1.028-1.999,3.4-0.571,4.115l22.455,5.857c0.543,0.6,1.199,1.143,2.142,1.171
            C37.881,74.709,39.309,73.879,39.338,72.194L39.338,72.194L39.338,72.194z M116.728,63.222h4.314v3.972
            c0,0.886-0.771,1.572-2.343,2.114c-1.229,0.4-2.4,0.599-3.485,0.599h-11.456c-4.599,0-6.884-0.942-6.884-2.828V53.138
            c0-1.887,2.743-2.829,8.199-2.829c1.056,0,2.143,0.086,3.228,0.086c1.229,0,1.857-0.714,1.857-2.086
            c0-1.372-0.628-2.057-1.857-2.057h-4.571c-2.771,0-5.285,0.457-7.57,1.343c-2.914,1.199-4.343,3.057-4.343,5.543v13.971
            c0,5.857,7.342,7,11.856,7h11.541c2.8,0,5.171-0.486,7.142-1.457c2.513-1.228,3.771-3.114,3.771-5.657
            c0-1.457,0.229-6.685-0.086-7.771c-0.229-0.714-0.799-1.056-1.686-1.056h-7.627c-0.885,0-1.485,0.343-1.685,1.085
            c-0.057,0.228-0.057,0.486-0.085,0.887c-0.029,0.342-0.029,0.799-0.029,1.285C114.929,62.651,115.529,63.222,116.728,63.222
            L116.728,63.222L116.728,63.222z M48.451,72.28V48.022c0-1.199-0.6-1.8-1.771-1.8c-0.686,0-1.543,0-2.229,0.114
            c-0.714,0.229-1.086,0.772-1.086,1.686V72.28c0,0.914,0.372,1.485,1.114,1.686c0.714,0.114,1.485,0.114,2.2,0.114
            C47.851,74.08,48.451,73.48,48.451,72.28L48.451,72.28L48.451,72.28z M161.381,72.28c0-1.571-0.572-2.372-1.771-2.372h-15.998
            c-2.744,0-4.486-0.114-5.229-0.313c-2.342-0.457-3.514-1.4-3.514-2.857V48.022c0-0.885-0.371-1.428-1.115-1.657
            c-0.312-0.086-1.027-0.143-2.17-0.143c-1.201,0-1.801,0.601-1.801,1.8v18.715c0,3.114,1.629,5.229,4.828,6.343
            c2.086,0.685,5,1,8.713,1h16.285C160.808,74.08,161.381,73.48,161.381,72.28L161.381,72.28L161.381,72.28z M171.521,72.28V48.022
            c0-1.199-0.6-1.8-1.772-1.8c-0.685,0-1.543,0-2.228,0.114c-0.713,0.229-1.086,0.772-1.086,1.686V72.28
            c0,0.914,0.373,1.485,1.115,1.686c0.715,0.114,1.484,0.114,2.199,0.114C170.922,74.08,171.521,73.48,171.521,72.28L171.521,72.28
            L171.521,72.28z M211.431,66.565V53.308c0-4.714-3.771-7.086-11.314-7.086h-21.596c-1.201,0-1.801,0.601-1.801,1.8v17.372
            c0,0.972,0.771,1.8,1.771,1.8h1.514c0.971,0,1.801-0.828,1.801-1.8V50.366h18.168c1.887,0,6.428,0.427,6.428,2.971v13.2
            c0,2.886-4.371,3.371-6.514,3.371h-14.883h-3.199h-3.314c-1.172,0-1.771,0.915-1.771,1.601v0.771c0,1.2,0.6,1.8,1.801,1.8h21.482
            c2.941,0,5.428-0.515,7.485-1.543C210.117,71.166,211.431,69.194,211.431,66.565L211.431,66.565L211.431,66.565z M239.599,58.194
            h-18.742v-4.886c0-2,2.771-3,8.342-3c0.201,0,0.43,0,0.687,0c0.285,0,0.828,0.028,1.199,0.028c0.057,0.057,1.629,0.029,1.713,0.029
            c1.172,0,1.771-0.601,1.771-1.801c0-1.571-0.6-2.343-1.771-2.343h-5.17c-5,0.029-8.514,1.172-10.455,3.485
            c-0.887,1.086-1.344,2.286-1.344,3.6v13.829c0,2.457,1.344,4.285,4.086,5.542c2.199,0.943,4.627,1.401,7.285,1.401h18.168
            c1.172,0,1.772-0.8,1.772-2.371c0-1.2-0.6-1.801-1.772-1.801H227.43c-4.344,0-6.514-1-6.514-2.942v-4.599h18.654
            c1.258,0,1.885-0.743,1.885-2.2l0,0C241.455,58.851,240.828,58.194,239.599,58.194z" />
  </symbol>
</svg>
