<?xml version="1.0" encoding="iso-8859-1"?>
<!-- Generator: Adobe Illustrator 17.0.0, SVG Export Plug-In . SVG Version: 6.00 Build 0)  -->
<!DOCTYPE svg PUBLIC "-//W3C//DTD SVG 1.1//EN" "http://www.w3.org/Graphics/SVG/1.1/DTD/svg11.dtd">
<svg version="1.1" id="Layer_1" xmlns="http://www.w3.org/2000/svg" xmlns:xlink="http://www.w3.org/1999/xlink" x="0px" y="0px"
	 width="141.543px" height="108.114px" viewBox="0 0 141.543 108.114" style="enable-background:new 0 0 141.543 108.114;"
	 xml:space="preserve">
<g>
	<circle style="fill:#29292A;" cx="43.757" cy="0.071" r="0.029"/>
	<circle style="fill:#29292A;" cx="48.899" cy="0.071" r="0.043"/>
	<circle style="fill:#29292A;" cx="54.043" cy="0.071" r="0.057"/>
	<circle style="fill:#29292A;" cx="59.186" cy="0.071" r="0.071"/>
	<circle style="fill:#29292A;" cx="64.328" cy="0.071" r="0.071"/>
	<circle style="fill:#29292A;" cx="69.471" cy="0.071" r="0.071"/>
	<circle style="fill:#29292A;" cx="74.614" cy="0.071" r="0.057"/>
	<circle style="fill:#29292A;" cx="79.757" cy="0.071" r="0.043"/>
	<circle style="fill:#29292A;" cx="84.899" cy="0.071" r="0.029"/>
	<circle style="fill:#29292A;" cx="90.043" cy="0.071" r="0.014"/>
	<circle style="fill:#29292A;" cx="25.757" cy="5.214" r="0.014"/>
	<circle style="fill:#29292A;" cx="30.899" cy="5.214" r="0.043"/>
	<circle style="fill:#29292A;" cx="36.043" cy="5.214" r="0.086"/>
	<circle style="fill:#29292A;" cx="41.186" cy="5.214" r="0.128"/>
	<circle style="fill:#29292A;" cx="46.328" cy="5.214" r="0.171"/>
	<circle style="fill:#29292A;" cx="51.471" cy="5.214" r="0.2"/>
	<circle style="fill:#29292A;" cx="56.614" cy="5.214" r="0.228"/>
	<circle style="fill:#29292A;" cx="61.757" cy="5.214" r="0.242"/>
	<circle style="fill:#29292A;" cx="66.899" cy="5.214" r="0.242"/>
	<circle style="fill:#29292A;" cx="72.043" cy="5.214" r="0.228"/>
	<circle style="fill:#29292A;" cx="77.185" cy="5.214" r="0.2"/>
	<circle style="fill:#29292A;" cx="82.328" cy="5.214" r="0.157"/>
	<circle style="fill:#29292A;" cx="87.471" cy="5.214" r="0.114"/>
	<circle style="fill:#29292A;" cx="92.614" cy="5.214" r="0.071"/>
	<circle style="fill:#29292A;" cx="97.757" cy="5.214" r="0.043"/>
	<circle style="fill:#29292A;" cx="102.899" cy="5.214" r="0.014"/>
	<circle style="fill:#29292A;" cx="23.185" cy="10.357" r="0.043"/>
	<circle style="fill:#29292A;" cx="28.328" cy="10.357" r="0.1"/>
	<circle style="fill:#29292A;" cx="33.471" cy="10.357" r="0.157"/>
	<circle style="fill:#29292A;" cx="38.614" cy="10.357" r="0.228"/>
	<circle style="fill:#29292A;" cx="43.757" cy="10.357" r="0.314"/>
	<circle style="fill:#29292A;" cx="48.899" cy="10.357" r="0.371"/>
	<circle style="fill:#29292A;" cx="54.043" cy="10.357" r="0.428"/>
	<circle style="fill:#29292A;" cx="59.186" cy="10.357" r="0.457"/>
	<circle style="fill:#29292A;" cx="64.328" cy="10.357" r="0.485"/>
	<circle style="fill:#29292A;" cx="69.471" cy="10.357" r="0.485"/>
	<circle style="fill:#29292A;" cx="74.614" cy="10.357" r="0.457"/>
	<circle style="fill:#29292A;" cx="79.757" cy="10.357" r="0.428"/>
	<circle style="fill:#29292A;" cx="84.899" cy="10.357" r="0.371"/>
	<circle style="fill:#29292A;" cx="90.043" cy="10.357" r="0.299"/>
	<circle style="fill:#29292A;" cx="95.185" cy="10.357" r="0.228"/>
	<circle style="fill:#29292A;" cx="100.328" cy="10.357" r="0.157"/>
	<circle style="fill:#29292A;" cx="105.471" cy="10.357" r="0.1"/>
	<circle style="fill:#29292A;" cx="110.614" cy="10.357" r="0.043"/>
	<circle style="fill:#29292A;" cx="10.328" cy="15.5" r="0.014"/>
	<circle style="fill:#29292A;" cx="15.471" cy="15.5" r="0.057"/>
	<circle style="fill:#29292A;" cx="20.614" cy="15.5" r="0.128"/>
	<circle style="fill:#29292A;" cx="25.757" cy="15.5" r="0.214"/>
	<circle style="fill:#29292A;" cx="30.899" cy="15.5" r="0.328"/>
	<circle style="fill:#29292A;" cx="36.043" cy="15.5" r="0.428"/>
	<circle style="fill:#29292A;" cx="41.186" cy="15.5" r="0.528"/>
	<circle style="fill:#29292A;" cx="46.328" cy="15.5" r="0.628"/>
	<circle style="fill:#29292A;" cx="51.471" cy="15.5" r="0.699"/>
	<circle style="fill:#29292A;" cx="56.614" cy="15.5" r="0.756"/>
	<circle style="fill:#29292A;" cx="61.757" cy="15.5" r="0.784"/>
	<circle style="fill:#29292A;" cx="66.899" cy="15.5" r="0.784"/>
	<circle style="fill:#29292A;" cx="72.043" cy="15.5" r="0.77"/>
	<circle style="fill:#29292A;" cx="77.185" cy="15.5" r="0.713"/>
	<circle style="fill:#29292A;" cx="82.328" cy="15.5" r="0.642"/>
	<circle style="fill:#29292A;" cx="87.471" cy="15.5" r="0.556"/>
	<circle style="fill:#29292A;" cx="92.614" cy="15.5" r="0.456"/>
	<circle style="fill:#29292A;" cx="97.757" cy="15.5" r="0.342"/>
	<circle style="fill:#29292A;" cx="102.899" cy="15.5" r="0.242"/>
	<circle style="fill:#29292A;" cx="108.043" cy="15.5" r="0.157"/>
	<circle style="fill:#29292A;" cx="113.186" cy="15.5" r="0.072"/>
	<circle style="fill:#29292A;" cx="118.328" cy="15.5" r="0.014"/>
	<circle style="fill:#29292A;" cx="12.899" cy="20.643" r="0.057"/>
	<circle style="fill:#29292A;" cx="18.043" cy="20.643" r="0.143"/>
	<circle style="fill:#29292A;" cx="23.185" cy="20.643" r="0.242"/>
	<circle style="fill:#29292A;" cx="28.328" cy="20.643" r="0.371"/>
	<circle style="fill:#29292A;" cx="33.471" cy="20.643" r="0.513"/>
	<circle style="fill:#29292A;" cx="38.614" cy="20.643" r="0.656"/>
	<circle style="fill:#29292A;" cx="43.757" cy="20.643" r="0.784"/>
	<circle style="fill:#29292A;" cx="48.899" cy="20.643" r="0.913"/>
	<circle style="fill:#29292A;" cx="54.043" cy="20.643" r="1.027"/>
	<circle style="fill:#29292A;" cx="59.186" cy="20.643" r="1.098"/>
	<circle style="fill:#29292A;" cx="64.328" cy="20.643" r="1.155"/>
	<circle style="fill:#29292A;" cx="69.471" cy="20.643" r="1.155"/>
	<circle style="fill:#29292A;" cx="74.614" cy="20.643" r="1.126"/>
	<circle style="fill:#29292A;" cx="79.757" cy="20.643" r="1.07"/>
	<circle style="fill:#29292A;" cx="84.899" cy="20.643" r="0.97"/>
	<circle style="fill:#29292A;" cx="90.043" cy="20.643" r="0.856"/>
	<circle style="fill:#29292A;" cx="95.185" cy="20.643" r="0.728"/>
	<circle style="fill:#29292A;" cx="100.328" cy="20.643" r="0.585"/>
	<circle style="fill:#29292A;" cx="105.471" cy="20.643" r="0.442"/>
	<circle style="fill:#29292A;" cx="110.614" cy="20.643" r="0.314"/>
	<circle style="fill:#29292A;" cx="115.757" cy="20.643" r="0.186"/>
	<circle style="fill:#29292A;" cx="120.899" cy="20.643" r="0.1"/>
	<circle style="fill:#29292A;" cx="126.043" cy="20.643" r="0.028"/>
	<circle style="fill:#29292A;" cx="5.185" cy="25.785" r="0.029"/>
	<circle style="fill:#29292A;" cx="10.328" cy="25.785" r="0.114"/>
	<circle style="fill:#29292A;" cx="15.471" cy="25.785" r="0.228"/>
	<circle style="fill:#29292A;" cx="20.614" cy="25.785" r="0.371"/>
	<circle style="fill:#29292A;" cx="25.757" cy="25.786" r="0.542"/>
	<circle style="fill:#29292A;" cx="30.899" cy="25.785" r="0.713"/>
	<circle style="fill:#29292A;" cx="36.043" cy="25.786" r="0.884"/>
	<circle style="fill:#29292A;" cx="41.186" cy="25.785" r="1.07"/>
	<circle style="fill:#29292A;" cx="46.328" cy="25.786" r="1.241"/>
	<circle style="fill:#29292A;" cx="51.471" cy="25.785" r="1.384"/>
	<circle style="fill:#29292A;" cx="56.614" cy="25.785" r="1.497"/>
	<circle style="fill:#29292A;" cx="61.757" cy="25.786" r="1.569"/>
	<circle style="fill:#29292A;" cx="66.899" cy="25.786" r="1.583"/>
	<circle style="fill:#29292A;" cx="72.043" cy="25.785" r="1.554"/>
	<circle style="fill:#29292A;" cx="77.185" cy="25.785" r="1.483"/>
	<circle style="fill:#29292A;" cx="82.328" cy="25.785" r="1.355"/>
	<circle style="fill:#29292A;" cx="87.471" cy="25.785" r="1.212"/>
	<circle style="fill:#29292A;" cx="92.614" cy="25.785" r="1.041"/>
	<circle style="fill:#29292A;" cx="97.757" cy="25.785" r="0.856"/>
	<circle style="fill:#29292A;" cx="102.899" cy="25.785" r="0.67"/>
	<circle style="fill:#29292A;" cx="108.043" cy="25.785" r="0.499"/>
	<circle style="fill:#29292A;" cx="113.186" cy="25.786" r="0.342"/>
	<circle style="fill:#29292A;" cx="118.328" cy="25.786" r="0.2"/>
	<circle style="fill:#29292A;" cx="123.471" cy="25.785" r="0.1"/>
	<circle style="fill:#29292A;" cx="128.614" cy="25.785" r="0.029"/>
	<circle style="fill:#29292A;" cx="2.614" cy="30.928" r="0.014"/>
	<circle style="fill:#29292A;" cx="7.757" cy="30.928" r="0.071"/>
	<circle style="fill:#29292A;" cx="12.899" cy="30.929" r="0.185"/>
	<circle style="fill:#29292A;" cx="18.043" cy="30.928" r="0.328"/>
	<circle style="fill:#29292A;" cx="23.185" cy="30.928" r="0.499"/>
	<circle style="fill:#29292A;" cx="28.328" cy="30.928" r="0.699"/>
	<circle style="fill:#29292A;" cx="33.471" cy="30.928" r="0.913"/>
	<circle style="fill:#29292A;" cx="38.614" cy="30.928" r="1.141"/>
	<circle style="fill:#29292A;" cx="43.757" cy="30.928" r="1.355"/>
	<circle style="fill:#29292A;" cx="48.899" cy="30.928" r="1.569"/>
	<circle style="fill:#29292A;" cx="54.043" cy="30.928" r="1.769"/>
	<circle style="fill:#29292A;" cx="59.186" cy="30.928" r="1.925"/>
	<circle style="fill:#29292A;" cx="64.328" cy="30.928" r="2.025"/>
	<circle style="fill:#29292A;" cx="69.471" cy="30.928" r="2.068"/>
	<circle style="fill:#29292A;" cx="74.614" cy="30.928" r="2.025"/>
	<circle style="fill:#29292A;" cx="79.757" cy="30.928" r="1.925"/>
	<circle style="fill:#29292A;" cx="84.899" cy="30.928" r="1.783"/>
	<circle style="fill:#29292A;" cx="90.043" cy="30.928" r="1.597"/>
	<circle style="fill:#29292A;" cx="95.185" cy="30.928" r="1.383"/>
	<circle style="fill:#29292A;" cx="100.328" cy="30.928" r="1.155"/>
	<circle style="fill:#29292A;" cx="105.471" cy="30.929" r="0.927"/>
	<circle style="fill:#29292A;" cx="110.614" cy="30.928" r="0.713"/>
	<circle style="fill:#29292A;" cx="115.757" cy="30.928" r="0.513"/>
	<circle style="fill:#29292A;" cx="120.899" cy="30.928" r="0.342"/>
	<circle style="fill:#29292A;" cx="126.043" cy="30.929" r="0.185"/>
	<circle style="fill:#29292A;" cx="131.186" cy="30.928" r="0.085"/>
	<circle style="fill:#29292A;" cx="136.328" cy="30.928" r="0.014"/>
	<circle style="fill:#29292A;" cx="0.043" cy="36.071" r="0.029"/>
	<circle style="fill:#29292A;" cx="5.185" cy="36.071" r="0.114"/>
	<circle style="fill:#29292A;" cx="10.328" cy="36.071" r="0.242"/>
	<circle style="fill:#29292A;" cx="15.471" cy="36.071" r="0.414"/>
	<circle style="fill:#29292A;" cx="20.614" cy="36.071" r="0.613"/>
	<circle style="fill:#29292A;" cx="25.757" cy="36.071" r="0.841"/>
	<circle style="fill:#29292A;" cx="30.899" cy="36.071" r="1.098"/>
	<circle style="fill:#29292A;" cx="36.043" cy="36.071" r="1.355"/>
	<circle style="fill:#29292A;" cx="41.186" cy="36.071" r="1.626"/>
	<circle style="fill:#29292A;" cx="46.328" cy="36.071" r="1.911"/>
	<circle style="fill:#29292A;" cx="51.471" cy="36.071" r="2.154"/>
	<circle style="fill:#29292A;" cx="56.614" cy="36.071" r="2.367"/>
	<circle style="fill:#29292A;" cx="61.757" cy="36.071" r="2.524"/>
	<circle style="fill:#29292A;" cx="66.899" cy="36.071" r="2.581"/>
	<circle style="fill:#29292A;" cx="72.043" cy="36.071" r="2.553"/>
	<circle style="fill:#29292A;" cx="77.185" cy="36.071" r="2.439"/>
	<circle style="fill:#29292A;" cx="82.328" cy="36.071" r="2.239"/>
	<circle style="fill:#29292A;" cx="87.471" cy="36.071" r="1.997"/>
	<circle style="fill:#29292A;" cx="92.614" cy="36.071" r="1.726"/>
	<circle style="fill:#29292A;" cx="97.757" cy="36.071" r="1.455"/>
	<circle style="fill:#29292A;" cx="102.899" cy="36.071" r="1.184"/>
	<circle style="fill:#29292A;" cx="108.043" cy="36.071" r="0.927"/>
	<circle style="fill:#29292A;" cx="113.186" cy="36.071" r="0.685"/>
	<circle style="fill:#29292A;" cx="118.328" cy="36.071" r="0.485"/>
	<circle style="fill:#29292A;" cx="123.471" cy="36.071" r="0.3"/>
	<circle style="fill:#29292A;" cx="128.614" cy="36.071" r="0.157"/>
	<circle style="fill:#29292A;" cx="133.757" cy="36.071" r="0.057"/>
	<circle style="fill:#29292A;" cx="2.614" cy="41.214" r="0.043"/>
	<circle style="fill:#29292A;" cx="7.757" cy="41.214" r="0.143"/>
	<circle style="fill:#29292A;" cx="12.899" cy="41.214" r="0.285"/>
	<circle style="fill:#29292A;" cx="18.043" cy="41.214" r="0.485"/>
	<circle style="fill:#29292A;" cx="23.185" cy="41.214" r="0.699"/>
	<circle style="fill:#29292A;" cx="28.328" cy="41.214" r="0.956"/>
	<circle style="fill:#29292A;" cx="33.471" cy="41.214" r="1.241"/>
	<circle style="fill:#29292A;" cx="38.614" cy="41.214" r="1.54"/>
	<circle style="fill:#29292A;" cx="43.757" cy="41.214" r="1.868"/>
	<circle style="fill:#29292A;" cx="48.899" cy="41.214" r="2.196"/>
	<circle style="fill:#29292A;" cx="54.043" cy="41.214" r="2.51"/>
	<circle style="fill:#29292A;" cx="59.186" cy="41.214" r="2.653"/>
	<circle style="fill:#29292A;" cx="64.328" cy="41.214" r="2.653"/>
	<circle style="fill:#29292A;" cx="69.471" cy="41.214" r="2.653"/>
	<circle style="fill:#29292A;" cx="74.614" cy="41.214" r="2.653"/>
	<circle style="fill:#29292A;" cx="79.757" cy="41.214" r="2.653"/>
	<circle style="fill:#29292A;" cx="84.899" cy="41.214" r="2.653"/>
	<circle style="fill:#29292A;" cx="90.043" cy="41.214" r="2.396"/>
	<circle style="fill:#29292A;" cx="95.185" cy="41.214" r="2.068"/>
	<circle style="fill:#29292A;" cx="100.328" cy="41.214" r="1.74"/>
	<circle style="fill:#29292A;" cx="105.471" cy="41.214" r="1.426"/>
	<circle style="fill:#29292A;" cx="110.614" cy="41.214" r="1.127"/>
	<circle style="fill:#29292A;" cx="115.757" cy="41.214" r="0.856"/>
	<circle style="fill:#29292A;" cx="120.899" cy="41.214" r="0.613"/>
	<circle style="fill:#29292A;" cx="126.043" cy="41.214" r="0.399"/>
	<circle style="fill:#29292A;" cx="131.186" cy="41.214" r="0.228"/>
	<circle style="fill:#29292A;" cx="136.328" cy="41.214" r="0.1"/>
	<circle style="fill:#29292A;" cx="141.471" cy="41.214" r="0.014"/>
	<circle style="fill:#29292A;" cx="0.043" cy="46.357" r="0.043"/>
	<circle style="fill:#29292A;" cx="5.185" cy="46.357" r="0.157"/>
	<circle style="fill:#29292A;" cx="10.328" cy="46.357" r="0.314"/>
	<circle style="fill:#29292A;" cx="15.471" cy="46.357" r="0.513"/>
	<circle style="fill:#29292A;" cx="20.614" cy="46.357" r="0.742"/>
	<circle style="fill:#29292A;" cx="25.757" cy="46.357" r="1.013"/>
	<circle style="fill:#29292A;" cx="30.899" cy="46.357" r="1.326"/>
	<circle style="fill:#29292A;" cx="36.043" cy="46.357" r="1.654"/>
	<circle style="fill:#29292A;" cx="41.186" cy="46.357" r="2.025"/>
	<circle style="fill:#29292A;" cx="46.328" cy="46.357" r="2.396"/>
	<circle style="fill:#29292A;" cx="51.471" cy="46.357" r="2.653"/>
	<circle style="fill:#29292A;" cx="56.614" cy="46.357" r="2.653"/>
	<circle style="fill:#29292A;" cx="61.757" cy="46.357" r="2.653"/>
	<circle style="fill:#29292A;" cx="66.899" cy="46.357" r="2.653"/>
	<circle style="fill:#29292A;" cx="72.043" cy="46.357" r="2.653"/>
	<circle style="fill:#29292A;" cx="77.185" cy="46.357" r="2.653"/>
	<circle style="fill:#29292A;" cx="82.328" cy="46.357" r="2.653"/>
	<circle style="fill:#29292A;" cx="87.471" cy="46.357" r="2.653"/>
	<circle style="fill:#29292A;" cx="92.614" cy="46.357" r="2.353"/>
	<circle style="fill:#29292A;" cx="97.757" cy="46.357" r="1.968"/>
	<circle style="fill:#29292A;" cx="102.899" cy="46.357" r="1.612"/>
	<circle style="fill:#29292A;" cx="108.043" cy="46.357" r="1.284"/>
	<circle style="fill:#29292A;" cx="113.186" cy="46.357" r="0.984"/>
	<circle style="fill:#29292A;" cx="118.328" cy="46.357" r="0.728"/>
	<circle style="fill:#29292A;" cx="123.471" cy="46.357" r="0.485"/>
	<circle style="fill:#29292A;" cx="128.614" cy="46.357" r="0.285"/>
	<circle style="fill:#29292A;" cx="133.757" cy="46.357" r="0.143"/>
	<circle style="fill:#29292A;" cx="138.899" cy="46.357" r="0.043"/>
	<circle style="fill:#29292A;" cx="2.614" cy="51.5" r="0.043"/>
	<circle style="fill:#29292A;" cx="7.757" cy="51.5" r="0.157"/>
	<circle style="fill:#29292A;" cx="12.899" cy="51.5" r="0.314"/>
	<circle style="fill:#29292A;" cx="18.043" cy="51.5" r="0.513"/>
	<circle style="fill:#29292A;" cx="23.185" cy="51.5" r="0.756"/>
	<circle style="fill:#29292A;" cx="28.328" cy="51.5" r="1.027"/>
	<circle style="fill:#29292A;" cx="33.471" cy="51.5" r="1.341"/>
	<circle style="fill:#29292A;" cx="38.614" cy="51.5" r="1.683"/>
	<circle style="fill:#29292A;" cx="43.757" cy="51.5" r="2.068"/>
	<circle style="fill:#29292A;" cx="48.899" cy="51.5" r="2.467"/>
	<circle style="fill:#29292A;" cx="54.043" cy="51.5" r="2.653"/>
	<circle style="fill:#29292A;" cx="59.186" cy="51.5" r="2.653"/>
	<circle style="fill:#29292A;" cx="64.328" cy="51.5" r="2.653"/>
	<circle style="fill:#29292A;" cx="69.471" cy="51.5" r="2.653"/>
	<circle style="fill:#29292A;" cx="74.614" cy="51.5" r="2.653"/>
	<circle style="fill:#29292A;" cx="79.757" cy="51.5" r="2.653"/>
	<circle style="fill:#29292A;" cx="84.899" cy="51.5" r="2.653"/>
	<circle style="fill:#29292A;" cx="90.043" cy="51.5" r="2.653"/>
	<circle style="fill:#29292A;" cx="95.185" cy="51.5" r="2.539"/>
	<circle style="fill:#29292A;" cx="100.328" cy="51.5" r="2.125"/>
	<circle style="fill:#29292A;" cx="105.471" cy="51.5" r="1.74"/>
	<circle style="fill:#29292A;" cx="110.614" cy="51.5" r="1.398"/>
	<circle style="fill:#29292A;" cx="115.757" cy="51.5" r="1.07"/>
	<circle style="fill:#29292A;" cx="120.899" cy="51.5" r="0.799"/>
	<circle style="fill:#29292A;" cx="126.043" cy="51.5" r="0.542"/>
	<circle style="fill:#29292A;" cx="131.186" cy="51.5" r="0.342"/>
	<circle style="fill:#29292A;" cx="136.328" cy="51.5" r="0.171"/>
	<circle style="fill:#29292A;" cx="141.471" cy="51.5" r="0.057"/>
	<circle style="fill:#29292A;" cx="0.043" cy="56.643" r="0.028"/>
	<circle style="fill:#29292A;" cx="5.185" cy="56.643" r="0.128"/>
	<circle style="fill:#29292A;" cx="10.328" cy="56.643" r="0.285"/>
	<circle style="fill:#29292A;" cx="15.471" cy="56.643" r="0.485"/>
	<circle style="fill:#29292A;" cx="20.614" cy="56.643" r="0.713"/>
	<circle style="fill:#29292A;" cx="25.757" cy="56.643" r="0.984"/>
	<circle style="fill:#29292A;" cx="30.899" cy="56.643" r="1.298"/>
	<circle style="fill:#29292A;" cx="36.043" cy="56.643" r="1.626"/>
	<circle style="fill:#29292A;" cx="41.186" cy="56.643" r="1.997"/>
	<circle style="fill:#29292A;" cx="46.328" cy="56.643" r="2.396"/>
	<circle style="fill:#29292A;" cx="51.471" cy="56.643" r="2.653"/>
	<circle style="fill:#29292A;" cx="56.614" cy="56.643" r="2.653"/>
	<circle style="fill:#29292A;" cx="61.757" cy="56.643" r="2.653"/>
	<circle style="fill:#29292A;" cx="66.899" cy="56.643" r="2.653"/>
	<circle style="fill:#29292A;" cx="72.043" cy="56.643" r="2.653"/>
	<circle style="fill:#29292A;" cx="77.185" cy="56.643" r="2.653"/>
	<circle style="fill:#29292A;" cx="82.328" cy="56.643" r="2.653"/>
	<circle style="fill:#29292A;" cx="87.471" cy="56.643" r="2.653"/>
	<circle style="fill:#29292A;" cx="92.614" cy="56.643" r="2.582"/>
	<circle style="fill:#29292A;" cx="97.757" cy="56.643" r="2.168"/>
	<circle style="fill:#29292A;" cx="102.899" cy="56.643" r="1.783"/>
	<circle style="fill:#29292A;" cx="108.043" cy="56.643" r="1.426"/>
	<circle style="fill:#29292A;" cx="113.186" cy="56.643" r="1.112"/>
	<circle style="fill:#29292A;" cx="118.328" cy="56.643" r="0.827"/>
	<circle style="fill:#29292A;" cx="123.471" cy="56.643" r="0.57"/>
	<circle style="fill:#29292A;" cx="128.614" cy="56.643" r="0.371"/>
	<circle style="fill:#29292A;" cx="133.757" cy="56.643" r="0.2"/>
	<circle style="fill:#29292A;" cx="138.899" cy="56.643" r="0.071"/>
	<circle style="fill:#29292A;" cx="2.614" cy="61.785" r="0.014"/>
	<circle style="fill:#29292A;" cx="7.757" cy="61.785" r="0.1"/>
	<circle style="fill:#29292A;" cx="12.899" cy="61.785" r="0.242"/>
	<circle style="fill:#29292A;" cx="18.043" cy="61.786" r="0.414"/>
	<circle style="fill:#29292A;" cx="23.185" cy="61.785" r="0.642"/>
	<circle style="fill:#29292A;" cx="28.328" cy="61.786" r="0.884"/>
	<circle style="fill:#29292A;" cx="33.471" cy="61.786" r="1.169"/>
	<circle style="fill:#29292A;" cx="38.614" cy="61.785" r="1.483"/>
	<circle style="fill:#29292A;" cx="43.757" cy="61.785" r="1.825"/>
	<circle style="fill:#29292A;" cx="48.899" cy="61.786" r="2.196"/>
	<circle style="fill:#29292A;" cx="54.043" cy="61.785" r="2.581"/>
	<circle style="fill:#29292A;" cx="59.186" cy="61.785" r="2.653"/>
	<circle style="fill:#29292A;" cx="64.328" cy="61.785" r="2.653"/>
	<circle style="fill:#29292A;" cx="69.471" cy="61.785" r="2.653"/>
	<circle style="fill:#29292A;" cx="74.614" cy="61.785" r="2.653"/>
	<circle style="fill:#29292A;" cx="79.757" cy="61.785" r="2.653"/>
	<circle style="fill:#29292A;" cx="84.899" cy="61.785" r="2.653"/>
	<circle style="fill:#29292A;" cx="90.043" cy="61.785" r="2.653"/>
	<circle style="fill:#29292A;" cx="95.185" cy="61.785" r="2.453"/>
	<circle style="fill:#29292A;" cx="100.328" cy="61.785" r="2.096"/>
	<circle style="fill:#29292A;" cx="105.471" cy="61.785" r="1.726"/>
	<circle style="fill:#29292A;" cx="110.614" cy="61.785" r="1.398"/>
	<circle style="fill:#29292A;" cx="115.757" cy="61.785" r="1.084"/>
	<circle style="fill:#29292A;" cx="120.899" cy="61.785" r="0.813"/>
	<circle style="fill:#29292A;" cx="126.043" cy="61.785" r="0.571"/>
	<circle style="fill:#29292A;" cx="131.186" cy="61.785" r="0.357"/>
	<circle style="fill:#29292A;" cx="136.328" cy="61.785" r="0.185"/>
	<circle style="fill:#29292A;" cx="141.471" cy="61.786" r="0.071"/>
	<circle style="fill:#29292A;" cx="5.185" cy="66.928" r="0.057"/>
	<circle style="fill:#29292A;" cx="10.328" cy="66.928" r="0.171"/>
	<circle style="fill:#29292A;" cx="15.471" cy="66.928" r="0.328"/>
	<circle style="fill:#29292A;" cx="20.614" cy="66.928" r="0.528"/>
	<circle style="fill:#29292A;" cx="25.757" cy="66.928" r="0.756"/>
	<circle style="fill:#29292A;" cx="30.899" cy="66.928" r="1.013"/>
	<circle style="fill:#29292A;" cx="36.043" cy="66.928" r="1.298"/>
	<circle style="fill:#29292A;" cx="41.186" cy="66.928" r="1.597"/>
	<circle style="fill:#29292A;" cx="46.328" cy="66.928" r="1.911"/>
	<circle style="fill:#29292A;" cx="51.471" cy="66.928" r="2.225"/>
	<circle style="fill:#29292A;" cx="56.614" cy="66.928" r="2.524"/>
	<circle style="fill:#29292A;" cx="61.757" cy="66.928" r="2.653"/>
	<circle style="fill:#29292A;" cx="66.899" cy="66.928" r="2.653"/>
	<circle style="fill:#29292A;" cx="72.043" cy="66.928" r="2.653"/>
	<circle style="fill:#29292A;" cx="77.185" cy="66.928" r="2.653"/>
	<circle style="fill:#29292A;" cx="82.328" cy="66.928" r="2.653"/>
	<circle style="fill:#29292A;" cx="87.471" cy="66.928" r="2.524"/>
	<circle style="fill:#29292A;" cx="92.614" cy="66.928" r="2.21"/>
	<circle style="fill:#29292A;" cx="97.757" cy="66.928" r="1.897"/>
	<circle style="fill:#29292A;" cx="102.899" cy="66.928" r="1.583"/>
	<circle style="fill:#29292A;" cx="108.043" cy="66.928" r="1.283"/>
	<circle style="fill:#29292A;" cx="113.186" cy="66.928" r="0.998"/>
	<circle style="fill:#29292A;" cx="118.328" cy="66.928" r="0.742"/>
	<circle style="fill:#29292A;" cx="123.471" cy="66.928" r="0.528"/>
	<circle style="fill:#29292A;" cx="128.614" cy="66.928" r="0.328"/>
	<circle style="fill:#29292A;" cx="133.757" cy="66.928" r="0.171"/>
	<circle style="fill:#29292A;" cx="138.899" cy="66.928" r="0.057"/>
	<circle style="fill:#29292A;" cx="7.757" cy="72.071" r="0.029"/>
	<circle style="fill:#29292A;" cx="12.899" cy="72.071" r="0.1"/>
	<circle style="fill:#29292A;" cx="18.043" cy="72.071" r="0.228"/>
	<circle style="fill:#29292A;" cx="23.185" cy="72.071" r="0.399"/>
	<circle style="fill:#29292A;" cx="28.328" cy="72.071" r="0.599"/>
	<circle style="fill:#29292A;" cx="33.471" cy="72.071" r="0.813"/>
	<circle style="fill:#29292A;" cx="38.614" cy="72.071" r="1.055"/>
	<circle style="fill:#29292A;" cx="43.757" cy="72.071" r="1.312"/>
	<circle style="fill:#29292A;" cx="48.899" cy="72.071" r="1.583"/>
	<circle style="fill:#29292A;" cx="54.043" cy="72.071" r="1.84"/>
	<circle style="fill:#29292A;" cx="59.186" cy="72.071" r="2.082"/>
	<circle style="fill:#29292A;" cx="64.328" cy="72.071" r="2.282"/>
	<circle style="fill:#29292A;" cx="69.471" cy="72.071" r="2.41"/>
	<circle style="fill:#29292A;" cx="74.614" cy="72.071" r="2.467"/>
	<circle style="fill:#29292A;" cx="79.757" cy="72.071" r="2.439"/>
	<circle style="fill:#29292A;" cx="84.899" cy="72.071" r="2.31"/>
	<circle style="fill:#29292A;" cx="90.043" cy="72.071" r="2.125"/>
	<circle style="fill:#29292A;" cx="95.185" cy="72.071" r="1.897"/>
	<circle style="fill:#29292A;" cx="100.328" cy="72.071" r="1.64"/>
	<circle style="fill:#29292A;" cx="105.471" cy="72.071" r="1.383"/>
	<circle style="fill:#29292A;" cx="110.614" cy="72.071" r="1.127"/>
	<circle style="fill:#29292A;" cx="115.757" cy="72.071" r="0.884"/>
	<circle style="fill:#29292A;" cx="120.899" cy="72.071" r="0.642"/>
	<circle style="fill:#29292A;" cx="126.043" cy="72.071" r="0.442"/>
	<circle style="fill:#29292A;" cx="131.186" cy="72.071" r="0.271"/>
	<circle style="fill:#29292A;" cx="136.328" cy="72.071" r="0.128"/>
	<circle style="fill:#29292A;" cx="141.471" cy="72.071" r="0.043"/>
	<circle style="fill:#29292A;" cx="10.328" cy="77.214" r="0.043"/>
	<circle style="fill:#29292A;" cx="15.471" cy="77.214" r="0.143"/>
	<circle style="fill:#29292A;" cx="20.614" cy="77.214" r="0.271"/>
	<circle style="fill:#29292A;" cx="25.757" cy="77.214" r="0.428"/>
	<circle style="fill:#29292A;" cx="30.899" cy="77.214" r="0.613"/>
	<circle style="fill:#29292A;" cx="36.043" cy="77.214" r="0.813"/>
	<circle style="fill:#29292A;" cx="41.186" cy="77.214" r="1.027"/>
	<circle style="fill:#29292A;" cx="46.328" cy="77.214" r="1.241"/>
	<circle style="fill:#29292A;" cx="51.471" cy="77.214" r="1.455"/>
	<circle style="fill:#29292A;" cx="56.614" cy="77.214" r="1.64"/>
	<circle style="fill:#29292A;" cx="61.757" cy="77.214" r="1.797"/>
	<circle style="fill:#29292A;" cx="66.899" cy="77.214" r="1.897"/>
	<circle style="fill:#29292A;" cx="72.043" cy="77.214" r="1.954"/>
	<circle style="fill:#29292A;" cx="77.185" cy="77.214" r="1.94"/>
	<circle style="fill:#29292A;" cx="82.328" cy="77.214" r="1.854"/>
	<circle style="fill:#29292A;" cx="87.471" cy="77.214" r="1.726"/>
	<circle style="fill:#29292A;" cx="92.614" cy="77.214" r="1.554"/>
	<circle style="fill:#29292A;" cx="97.757" cy="77.214" r="1.355"/>
	<circle style="fill:#29292A;" cx="102.899" cy="77.214" r="1.141"/>
	<circle style="fill:#29292A;" cx="108.043" cy="77.214" r="0.927"/>
	<circle style="fill:#29292A;" cx="113.186" cy="77.214" r="0.713"/>
	<circle style="fill:#29292A;" cx="118.328" cy="77.214" r="0.528"/>
	<circle style="fill:#29292A;" cx="123.471" cy="77.214" r="0.342"/>
	<circle style="fill:#29292A;" cx="128.614" cy="77.214" r="0.2"/>
	<circle style="fill:#29292A;" cx="133.757" cy="77.214" r="0.086"/>
	<circle style="fill:#29292A;" cx="138.899" cy="77.214" r="0.014"/>
	<circle style="fill:#29292A;" cx="18.043" cy="82.357" r="0.057"/>
	<circle style="fill:#29292A;" cx="23.185" cy="82.357" r="0.143"/>
	<circle style="fill:#29292A;" cx="28.328" cy="82.357" r="0.271"/>
	<circle style="fill:#29292A;" cx="33.471" cy="82.357" r="0.414"/>
	<circle style="fill:#29292A;" cx="38.614" cy="82.357" r="0.585"/>
	<circle style="fill:#29292A;" cx="43.757" cy="82.357" r="0.756"/>
	<circle style="fill:#29292A;" cx="48.899" cy="82.357" r="0.927"/>
	<circle style="fill:#29292A;" cx="54.043" cy="82.357" r="1.084"/>
	<circle style="fill:#29292A;" cx="59.186" cy="82.357" r="1.227"/>
	<circle style="fill:#29292A;" cx="64.328" cy="82.357" r="1.355"/>
	<circle style="fill:#29292A;" cx="69.471" cy="82.357" r="1.44"/>
	<circle style="fill:#29292A;" cx="74.614" cy="82.357" r="1.483"/>
	<circle style="fill:#29292A;" cx="79.757" cy="82.357" r="1.483"/>
	<circle style="fill:#29292A;" cx="84.899" cy="82.357" r="1.426"/>
	<circle style="fill:#29292A;" cx="90.043" cy="82.357" r="1.326"/>
	<circle style="fill:#29292A;" cx="95.185" cy="82.357" r="1.198"/>
	<circle style="fill:#29292A;" cx="100.328" cy="82.357" r="1.055"/>
	<circle style="fill:#29292A;" cx="105.471" cy="82.357" r="0.884"/>
	<circle style="fill:#29292A;" cx="110.614" cy="82.357" r="0.713"/>
	<circle style="fill:#29292A;" cx="115.757" cy="82.357" r="0.542"/>
	<circle style="fill:#29292A;" cx="120.899" cy="82.357" r="0.385"/>
	<circle style="fill:#29292A;" cx="126.043" cy="82.357" r="0.242"/>
	<circle style="fill:#29292A;" cx="131.186" cy="82.357" r="0.128"/>
	<circle style="fill:#29292A;" cx="136.328" cy="82.357" r="0.043"/>
	<circle style="fill:#29292A;" cx="20.614" cy="87.5" r="0.057"/>
	<circle style="fill:#29292A;" cx="25.757" cy="87.5" r="0.143"/>
	<circle style="fill:#29292A;" cx="30.899" cy="87.5" r="0.242"/>
	<circle style="fill:#29292A;" cx="36.043" cy="87.5" r="0.357"/>
	<circle style="fill:#29292A;" cx="41.186" cy="87.5" r="0.499"/>
	<circle style="fill:#29292A;" cx="46.328" cy="87.5" r="0.628"/>
	<circle style="fill:#29292A;" cx="51.471" cy="87.5" r="0.756"/>
	<circle style="fill:#29292A;" cx="56.614" cy="87.5" r="0.87"/>
	<circle style="fill:#29292A;" cx="61.757" cy="87.5" r="0.97"/>
	<circle style="fill:#29292A;" cx="66.899" cy="87.5" r="1.027"/>
	<circle style="fill:#29292A;" cx="72.043" cy="87.5" r="1.07"/>
	<circle style="fill:#29292A;" cx="77.185" cy="87.5" r="1.07"/>
	<circle style="fill:#29292A;" cx="82.328" cy="87.5" r="1.041"/>
	<circle style="fill:#29292A;" cx="87.471" cy="87.5" r="0.97"/>
	<circle style="fill:#29292A;" cx="92.614" cy="87.5" r="0.884"/>
	<circle style="fill:#29292A;" cx="97.757" cy="87.5" r="0.756"/>
	<circle style="fill:#29292A;" cx="102.899" cy="87.5" r="0.642"/>
	<circle style="fill:#29292A;" cx="108.043" cy="87.5" r="0.499"/>
	<circle style="fill:#29292A;" cx="113.186" cy="87.5" r="0.371"/>
	<circle style="fill:#29292A;" cx="118.328" cy="87.5" r="0.242"/>
	<circle style="fill:#29292A;" cx="123.471" cy="87.5" r="0.143"/>
	<circle style="fill:#29292A;" cx="128.614" cy="87.5" r="0.057"/>
	<circle style="fill:#29292A;" cx="28.328" cy="92.643" r="0.043"/>
	<circle style="fill:#29292A;" cx="33.471" cy="92.643" r="0.1"/>
	<circle style="fill:#29292A;" cx="38.614" cy="92.643" r="0.186"/>
	<circle style="fill:#29292A;" cx="43.757" cy="92.643" r="0.271"/>
	<circle style="fill:#29292A;" cx="48.899" cy="92.643" r="0.371"/>
	<circle style="fill:#29292A;" cx="54.043" cy="92.643" r="0.471"/>
	<circle style="fill:#29292A;" cx="59.186" cy="92.643" r="0.556"/>
	<circle style="fill:#29292A;" cx="64.328" cy="92.643" r="0.627"/>
	<circle style="fill:#29292A;" cx="69.471" cy="92.643" r="0.685"/>
	<circle style="fill:#29292A;" cx="74.614" cy="92.643" r="0.713"/>
	<circle style="fill:#29292A;" cx="79.757" cy="92.643" r="0.713"/>
	<circle style="fill:#29292A;" cx="84.899" cy="92.643" r="0.699"/>
	<circle style="fill:#29292A;" cx="90.043" cy="92.643" r="0.656"/>
	<circle style="fill:#29292A;" cx="95.185" cy="92.643" r="0.585"/>
	<circle style="fill:#29292A;" cx="100.328" cy="92.643" r="0.499"/>
	<circle style="fill:#29292A;" cx="105.471" cy="92.643" r="0.399"/>
	<circle style="fill:#29292A;" cx="110.614" cy="92.643" r="0.314"/>
	<circle style="fill:#29292A;" cx="115.757" cy="92.643" r="0.214"/>
	<circle style="fill:#29292A;" cx="120.899" cy="92.643" r="0.128"/>
	<circle style="fill:#29292A;" cx="126.043" cy="92.643" r="0.057"/>
	<circle style="fill:#29292A;" cx="131.186" cy="92.643" r="0.014"/>
	<circle style="fill:#29292A;" cx="30.899" cy="97.785" r="0.014"/>
	<circle style="fill:#29292A;" cx="36.043" cy="97.785" r="0.057"/>
	<circle style="fill:#29292A;" cx="41.186" cy="97.785" r="0.114"/>
	<circle style="fill:#29292A;" cx="46.328" cy="97.785" r="0.171"/>
	<circle style="fill:#29292A;" cx="51.471" cy="97.785" r="0.242"/>
	<circle style="fill:#29292A;" cx="56.614" cy="97.785" r="0.3"/>
	<circle style="fill:#29292A;" cx="61.757" cy="97.785" r="0.357"/>
	<circle style="fill:#29292A;" cx="66.899" cy="97.785" r="0.399"/>
	<circle style="fill:#29292A;" cx="72.043" cy="97.786" r="0.414"/>
	<circle style="fill:#29292A;" cx="77.185" cy="97.785" r="0.428"/>
	<circle style="fill:#29292A;" cx="82.328" cy="97.786" r="0.414"/>
	<circle style="fill:#29292A;" cx="87.471" cy="97.785" r="0.385"/>
	<circle style="fill:#29292A;" cx="92.614" cy="97.786" r="0.342"/>
	<circle style="fill:#29292A;" cx="97.757" cy="97.786" r="0.271"/>
	<circle style="fill:#29292A;" cx="102.899" cy="97.786" r="0.214"/>
	<circle style="fill:#29292A;" cx="108.043" cy="97.786" r="0.143"/>
	<circle style="fill:#29292A;" cx="113.186" cy="97.785" r="0.086"/>
	<circle style="fill:#29292A;" cx="118.328" cy="97.785" r="0.043"/>
	<circle style="fill:#29292A;" cx="43.757" cy="102.928" r="0.014"/>
	<circle style="fill:#29292A;" cx="48.899" cy="102.928" r="0.043"/>
	<circle style="fill:#29292A;" cx="54.043" cy="102.928" r="0.071"/>
	<circle style="fill:#29292A;" cx="59.186" cy="102.928" r="0.114"/>
	<circle style="fill:#29292A;" cx="64.328" cy="102.928" r="0.143"/>
	<circle style="fill:#29292A;" cx="69.471" cy="102.928" r="0.171"/>
	<circle style="fill:#29292A;" cx="74.614" cy="102.929" r="0.185"/>
	<circle style="fill:#29292A;" cx="79.757" cy="102.928" r="0.2"/>
	<circle style="fill:#29292A;" cx="84.899" cy="102.929" r="0.185"/>
	<circle style="fill:#29292A;" cx="90.043" cy="102.928" r="0.171"/>
	<circle style="fill:#29292A;" cx="95.185" cy="102.928" r="0.143"/>
	<circle style="fill:#29292A;" cx="100.328" cy="102.928" r="0.114"/>
	<circle style="fill:#29292A;" cx="105.471" cy="102.928" r="0.071"/>
	<circle style="fill:#29292A;" cx="110.614" cy="102.928" r="0.043"/>
	<circle style="fill:#29292A;" cx="115.757" cy="102.928" r="0.014"/>
	<circle style="fill:#29292A;" cx="56.614" cy="108.071" r="0.014"/>
	<circle style="fill:#29292A;" cx="61.757" cy="108.071" r="0.029"/>
	<circle style="fill:#29292A;" cx="66.899" cy="108.071" r="0.043"/>
	<circle style="fill:#29292A;" cx="72.043" cy="108.071" r="0.043"/>
	<circle style="fill:#29292A;" cx="77.185" cy="108.071" r="0.043"/>
	<circle style="fill:#29292A;" cx="82.328" cy="108.071" r="0.043"/>
	<circle style="fill:#29292A;" cx="87.471" cy="108.071" r="0.043"/>
	<circle style="fill:#29292A;" cx="92.614" cy="108.071" r="0.029"/>
	<circle style="fill:#29292A;" cx="97.757" cy="108.071" r="0.014"/>
</g>
</svg>
