<?xml version="1.0" encoding="UTF-8"?>
<!DOCTYPE svg PUBLIC "-//W3C//DTD SVG 1.1//EN" "http://www.w3.org/Graphics/SVG/1.1/DTD/svg11.dtd">
<svg xmlns="http://www.w3.org/2000/svg" xmlns:xlink="http://www.w3.org/1999/xlink">

    <symbol id="conan" viewBox="0 0 313.981 56.693">
        <path d="M53.052,7.195H11.107c0,0-9.175,13.354-10.486,18.925
		c-1.311,5.571-0.221,11.007,0.328,12.862c0.549,1.855,5.341,6.696,13.69,10.38c8.35,3.683,23.371,4.759,25.88,5.186l9.83-13.026
		l-21.546-1.065c-2.882-0.143-5.157-1.614-7.35-2.909c-2.531-1.495-4.847-2.974-6.087-5.447c-1.123-2.239,4.096-11.797,4.096-11.797
		l28.919,0.082L53.052,7.195L53.052,7.195z M255.485,9.337c0,0,1.803,16.057,1.639,28.837c-0.164,12.78-0.983,16.221-0.983,16.221
		l14.747-2.785l-0.492-23.758l30.641,28.018l8.848-4.751c0,0,0.329-19.498,0.82-23.594c0.492-4.096,3.277-14.255,3.277-14.255
		l-16.222-7.537l-0.655,25.889L268.43,5.242L255.485,9.337L255.485,9.337z M186.569,47.516c0,0,10.486-10.322,11.961-13.272
		c1.475-2.949,10.487-22.118,10.487-22.118s-3.032-5.326-4.343-7.374L217.208,0c0,0,9.012,16.386,14.911,24.579
		c5.899,8.192,17.696,24.25,17.696,24.25L237.69,55.71l-6.239-6.863h-28.51l-6.214,7.846L186.569,47.516L186.569,47.516z
		 M209.465,38.262l7.496-12.699l7.62,12.699H209.465L209.465,38.262z M123.596,9.337c0,0,1.803,16.057,1.639,28.837
		c-0.164,12.78-0.983,16.221-0.983,16.221l14.747-2.785l-0.492-23.758l30.641,28.018l8.848-4.751c0,0,0.328-19.498,0.82-23.594
		c0.492-4.096,3.277-14.255,3.277-14.255L165.87,5.733l-0.655,25.889l-28.674-26.38L123.596,9.337L123.596,9.337z M86.871,5.636
		c17.38,0.877,30.366,14.644,30.039,24.342c-0.328,9.698-13.353,23.684-30.148,24.706c-17.819-1.315-32.278-15.828-30.968-25.853
		C57.104,18.806,70.22,6.951,86.871,5.636L86.871,5.636z M86.621,19.371c7.361,0,13.473,6.361,13.327,10.648
		c-0.144,4.287-5.967,10.648-13.327,10.648c-7.361,0-14.269-6.723-13.69-11.155C73.51,25.08,79.26,19.371,86.621,19.371
		L86.621,19.371z"/>
    </symbol>

    <symbol id="falcon" viewBox="0 0 49.131 7.087">
        <path style="fill-rule:evenodd;clip-rule:evenodd;" d="M0,7.087l1.77-4.552c0.589-1.513,2.274-2.49,4.392-2.49h5.74l-0.814,1.838H6.347
        c-0.448,0-0.793,0.775-0.528,0.775h4.927L10,4.34h-4.93L3.853,7.087H0L0,7.087z M14.768,1.163c-1.415,0-3.774,0.698-4.029,2.765
        c-0.088,0.716,0.673,1.918,2.11,1.918h2.204l0.596-1.338h-1.127c-1.371,0-0.786-1.945,0.827-1.945h1.725l-1.438,3.283h2.732
        l2.066-4.683H14.768L14.768,1.163z M21.607,0l-2.584,5.845h2.971L24.569,0H21.607L21.607,0z M29.723,5.846l0.739-1.66h-2.83
        c-0.743,0-0.773-0.368-0.729-0.583c0.076-0.369,0.503-0.738,1.305-0.738l2.831,0.001l0.832-1.885h-3.724
        c-1.791,0-3.649,0.84-4.31,1.954c-0.924,1.557,0.195,2.91,1.545,2.91L29.723,5.846L29.723,5.846z M35.634,0.918
        c-2.661,0.284-4.708,1.604-4.572,2.948c0.135,1.344,2.403,2.204,5.063,1.92c2.661-0.284,4.708-1.604,4.573-2.948
        C40.562,1.494,38.295,0.634,35.634,0.918L35.634,0.918z M35.607,2.783c-0.737,0.225-1.243,0.71-1.132,1.083
        c0.112,0.373,0.799,0.492,1.536,0.266c0.736-0.225,1.243-0.71,1.132-1.083C37.031,2.677,36.344,2.557,35.607,2.783L35.607,2.783z
         M39.802,5.852h3.352l1.183-2.674c0.096-0.221,1.409-0.177,1.336-0.001l-1.182,2.675h3.375l1.141-2.562
        c0.539-1.21-0.771-2.308-2.453-2.308h-4.594L39.802,5.852L39.802,5.852z"/>
    </symbol>

    <symbol id="horus" viewBox="0 0 325.984 36.85">
        <path d="M54.964,0c2.447,0,4.515,2.23,4.515,4.87v27.111
        c0,2.64-2.068,4.869-4.515,4.869c-2.447,0-4.515-2.229-4.515-4.869v-1.835c-0.218-6.353-6.154-6.85-7.968-6.85H16.999
        c-2.719,0-5.493-0.657-7.968-1.872v10.558c0,2.64-2.068,4.869-4.515,4.869C2.068,36.85,0,34.621,0,31.981V4.87
        C0,2.23,2.068,0,4.515,0C6.962,0,9.03,2.23,9.03,4.87v1.356c0,6.802,6.099,7.33,7.968,7.33h25.482c2.72,0,5.493,0.657,7.968,1.873
        V4.87C50.449,2.23,52.517,0,54.964,0L54.964,0z M117.864,18.425c0-2.611-0.705-8.685-7.234-8.685H80.963
        c-6.529,0-7.234,6.074-7.234,8.685c0,2.611,0.705,8.685,7.234,8.685h29.667C117.159,27.11,117.864,21.036,117.864,18.425
        L117.864,18.425z M112.907,0c8.526,0.507,13.768,9.958,13.768,18.425c0,8.862-5.545,18.425-14.502,18.425H78.687
        c-8.526-0.508-13.768-9.959-13.768-18.425C64.919,9.564,70.463,0,79.421,0H112.907L112.907,0z M191.447,11.648
        C191.447,5.225,186.555,0,180.542,0h-43.986c-2.448,0-4.515,2.23-4.515,4.87c0,2.64,2.067,4.87,4.515,4.87h44.28
        c0.942,0,1.8,0.909,1.8,1.907c0,1.141-0.93,1.907-1.8,1.907h-38.919c-5.446,0-9.876,4.831-9.876,10.771v7.655
        c0,2.64,2.067,4.869,4.515,4.869c2.405,0,4.515-2.277,4.515-4.869v-6.779c0-1.094,0.684-1.738,1.386-1.907h14.513
        c10.251,0,18.969,5.876,26.834,12.2c0.669,0.582,1.721,1.354,3.128,1.354c2.447,0,4.515-2.229,4.515-4.869
        c0-2.237-1.769-3.744-2.359-4.247c-2.336-1.952-4.273-3.486-6.01-4.756C187.872,21.753,191.447,17.138,191.447,11.648
        L191.447,11.648z M254.054,0.079c-2.449,0-4.517,2.23-4.517,4.871v13.475c0,2.611-0.704,8.685-7.234,8.685h-29.226
        c-6.53,0-7.234-6.074-7.234-8.685l0-13.475c0-2.64-2.068-4.871-4.515-4.871c-2.448,0-4.516,2.23-4.516,4.871v13.475
        c0,8.466,5.243,17.918,13.768,18.425h33.486c8.957,0,14.502-9.564,14.502-18.425l0-13.475
        C258.568,2.309,256.501,0.079,254.054,0.079L254.054,0.079z M315.152,13.555h-40.608c-0.941,0-1.799-0.909-1.799-1.907
        c0-1.141,0.93-1.907,1.799-1.907h44.721c2.447,0,4.516-2.23,4.516-4.87c0-2.64-2.069-4.87-4.516-4.87h-44.574
        c-5.932,0-10.758,5.225-10.758,11.648c0,6.422,4.826,11.648,10.758,11.648h40.755c0.937,0,1.726,0.91,1.726,1.986
        c0,0.99-0.789,1.828-1.726,1.828h-44.794c-2.447,0-4.516,2.23-4.516,4.871c0,2.64,2.069,4.869,4.516,4.869h44.5
        c5.973,0,10.832-5.189,10.832-11.568C325.984,18.816,321.125,13.555,315.152,13.555L315.152,13.555z"/>
    </symbol>

    <symbol id="inspire" viewBox="0 0 340.047 42.363">
        <path d="M40.427,42.362c0.507,0,0.922-0.23,1.244-0.691
		c0.322-0.461,0.53-0.806,0.622-1.037l1.313-3.663c0.23-0.599,0.368-1.094,0.415-1.486c0.046-0.391-0.185-0.633-0.691-0.725
		l-9.122,0c-0.461,0-0.68-0.184-0.656-0.553c0.023-0.368,0.058-0.737,0.103-1.105L42.293,9.26c0.23-0.369,0.484-0.737,0.76-1.106
		c0.277-0.368,0.622-0.553,1.037-0.553h9.122c0.552-0.092,0.956-0.334,1.209-0.726c0.253-0.392,0.495-0.887,0.725-1.486l1.313-3.663
		c0.093-0.231,0.138-0.576,0.138-1.037C56.599,0.23,56.345,0,55.838,0H16.102c-0.507,0-0.899,0.253-1.175,0.76
		c-0.276,0.507-0.53,0.875-0.76,1.106L12.923,5.39c-0.23,0.599-0.368,1.094-0.415,1.486c-0.046,0.391,0.185,0.634,0.691,0.726h8.984
		c0.599,0,0.944,0.161,1.036,0.484c0.092,0.322,0.046,0.714-0.138,1.175l-8.777,24.187c-0.415,0.875-1.083,1.313-2.004,1.313
		l-8.984,0c-0.553,0.092-0.956,0.334-1.21,0.726c-0.253,0.391-0.495,0.887-0.725,1.486l-1.313,3.593c0,0.138-0.012,0.3-0.035,0.484
		C0.011,41.234,0,41.441,0,41.672c0,0.184,0.046,0.346,0.138,0.484c0.092,0.138,0.277,0.207,0.553,0.207L40.427,42.362
		L40.427,42.362z M88.319,42.362c0.553,0,1.094-0.241,1.624-0.725c0.53-0.484,0.979-1.163,1.348-2.039l13.407-36.972
		c0.322-0.783,0.334-1.416,0.034-1.9C104.432,0.242,104.098,0,103.73,0H89.632c-0.369,0-0.852,0.242-1.451,0.726
		c-0.599,0.484-1.06,1.117-1.382,1.9l-5.39,14.858L80.371,2.557C80.233,0.852,79.841,0,79.197,0H63.371
		c-0.368,0-0.852,0.23-1.451,0.691c-0.599,0.461-1.037,1.083-1.313,1.866L47.131,39.598c-0.368,0.875-0.461,1.555-0.276,2.039
		c0.184,0.484,0.553,0.726,1.106,0.726l15.411,0c1.198,0,2.165-0.921,2.902-2.764l4.699-13.061c0.092,0.092,0.161,0.138,0.207,0.138
		h0.069l0.345,0.207L72.7,40.98c0.184,0.461,0.426,0.806,0.726,1.037c0.3,0.23,0.564,0.346,0.795,0.346L88.319,42.362L88.319,42.362
		z M145.125,15.065c0.461,0,1.002-0.219,1.624-0.656s1.117-1.117,1.486-2.039l3.11-8.569c0.185-0.507,0.219-0.99,0.103-1.451
		c-0.115-0.461-0.334-0.864-0.656-1.209c-0.323-0.346-0.714-0.622-1.175-0.829C149.156,0.104,148.695,0,148.234,0h-31.927
		c-0.737,0-1.532,0.15-2.384,0.449c-0.852,0.299-1.67,0.726-2.453,1.278c-0.783,0.552-1.497,1.198-2.142,1.935
		c-0.645,0.737-1.129,1.543-1.451,2.419l-5.805,15.964c-0.322,0.875-0.438,1.682-0.346,2.419c0.092,0.737,0.346,1.382,0.76,1.935
		c0.415,0.552,0.933,0.979,1.555,1.278c0.622,0.299,1.279,0.449,1.97,0.449h16.862c0.507,0.046,0.875,0.173,1.105,0.38
		c0.231,0.207,0.184,0.703-0.138,1.486l-1.105,3.04c-0.323,0.829-0.876,1.325-1.659,1.486s-1.405,0.242-1.866,0.242l-19.903,0
		c-0.553,0-1.094,0.254-1.624,0.76c-0.53,0.507-0.956,1.175-1.278,2.004l-0.829,2.28c-0.276,0.783-0.277,1.405,0,1.866
		c0.276,0.46,0.599,0.691,0.967,0.691l34.553,0c0.737,0,1.532-0.149,2.384-0.449c0.852-0.299,1.67-0.725,2.453-1.278
		c0.783-0.553,1.498-1.198,2.142-1.935c0.645-0.738,1.129-1.543,1.451-2.419l3.524-9.675c0.323-0.876,0.438-1.682,0.346-2.419
		c-0.092-0.737-0.334-1.382-0.726-1.935c-0.391-0.553-0.898-0.979-1.52-1.278c-0.622-0.3-1.302-0.449-2.039-0.449h-15.756
		c-0.461-0.046-0.818-0.173-1.071-0.38c-0.253-0.207-0.219-0.702,0.104-1.486l3.386-9.33c0.322-0.829,0.875-1.324,1.659-1.486
		c0.783-0.162,1.428-0.242,1.935-0.242h0.967c0.368,0,0.622,0.173,0.76,0.518c0.138,0.346,0.161,0.703,0.069,1.071l-1.175,3.11
		c-0.276,0.829-0.334,1.498-0.173,2.004c0.161,0.506,0.518,0.76,1.071,0.76L145.125,15.065L145.125,15.065z M191.012,24.049
		l6.565-17.968c0.323-0.876,0.437-1.682,0.345-2.419c-0.092-0.737-0.334-1.382-0.726-1.935c-0.391-0.553-0.91-0.979-1.555-1.278
		C194.997,0.15,194.306,0,193.569,0h-34.553c-0.368,0-0.853,0.23-1.452,0.691c-0.599,0.461-1.037,1.083-1.313,1.866l-13.476,37.041
		c-0.368,0.875-0.461,1.555-0.277,2.039c0.184,0.484,0.553,0.726,1.106,0.726l15.411,0c1.198,0,2.165-0.921,2.902-2.764
		l10.989-30.269c0.184-0.461,0.598-0.864,1.244-1.209c0.645-0.346,1.313-0.518,2.004-0.518c0.23,0,0.507,0.011,0.829,0.035
		c0.323,0.023,0.622,0.092,0.899,0.207c0.276,0.115,0.472,0.288,0.587,0.518c0.115,0.23,0.104,0.553-0.035,0.967l-4.147,11.334
		c-0.276,0.783-0.599,1.278-0.967,1.486c-0.368,0.207-0.829,0.334-1.382,0.38h-0.967c-0.507,0-0.887,0.242-1.14,0.726
		c-0.253,0.484-0.496,0.841-0.726,1.071l-1.313,3.593c-0.231,0.599-0.346,1.083-0.346,1.452c0,0.368,0.253,0.599,0.76,0.691h14.512
		c0.738,0,1.521-0.15,2.35-0.449c0.829-0.299,1.636-0.726,2.419-1.278c0.783-0.553,1.497-1.198,2.142-1.935
		C190.274,25.662,190.735,24.879,191.012,24.049L191.012,24.049z M229.781,42.362c0.507,0,0.922-0.23,1.244-0.691
		c0.322-0.461,0.53-0.806,0.622-1.037l1.313-3.663c0.23-0.599,0.368-1.094,0.414-1.486c0.046-0.391-0.185-0.633-0.691-0.725
		l-9.122,0c-0.461,0-0.68-0.184-0.657-0.553c0.023-0.368,0.058-0.737,0.103-1.105l8.639-23.842c0.23-0.369,0.484-0.737,0.76-1.106
		c0.277-0.368,0.622-0.553,1.037-0.553h9.122c0.552-0.092,0.956-0.334,1.209-0.726c0.253-0.392,0.495-0.887,0.725-1.486l1.313-3.663
		c0.092-0.231,0.138-0.576,0.138-1.037c0-0.461-0.253-0.691-0.76-0.691h-39.736c-0.507,0-0.899,0.253-1.175,0.76
		c-0.276,0.507-0.53,0.875-0.76,1.106l-1.244,3.524c-0.23,0.599-0.369,1.094-0.415,1.486c-0.046,0.391,0.185,0.634,0.691,0.726
		h8.984c0.599,0,0.944,0.161,1.036,0.484c0.092,0.322,0.046,0.714-0.138,1.175l-8.776,24.187c-0.415,0.875-1.083,1.313-2.004,1.313
		l-8.984,0c-0.553,0.092-0.956,0.334-1.21,0.726c-0.253,0.391-0.495,0.887-0.725,1.486l-1.313,3.593c0,0.138-0.012,0.3-0.035,0.484
		c-0.023,0.184-0.035,0.391-0.035,0.622c0,0.184,0.046,0.346,0.138,0.484c0.092,0.138,0.277,0.207,0.553,0.207L229.781,42.362
		L229.781,42.362z M284.652,24.257l6.634-18.175c0.323-0.876,0.437-1.682,0.345-2.419c-0.092-0.737-0.334-1.382-0.726-1.935
		c-0.391-0.553-0.91-0.979-1.555-1.278C288.706,0.15,288.015,0,287.278,0h-34.553c-0.368,0-0.853,0.23-1.452,0.691
		c-0.599,0.461-1.037,1.083-1.313,1.866l-13.476,37.041c-0.369,0.875-0.461,1.555-0.277,2.039c0.184,0.484,0.553,0.726,1.106,0.726
		l15.411,0c1.198,0,2.165-0.921,2.902-2.764l10.988-30.269c0.184-0.461,0.598-0.864,1.244-1.209
		c0.645-0.346,1.313-0.518,2.004-0.518c0.23,0,0.507,0.011,0.829,0.035c0.323,0.023,0.622,0.092,0.899,0.207
		c0.277,0.115,0.472,0.288,0.587,0.518c0.115,0.23,0.104,0.553-0.035,0.967l-4.147,11.334c-0.276,0.783-0.599,1.278-0.967,1.486
		c-0.368,0.207-0.829,0.334-1.382,0.38h-0.967c-0.507,0-0.887,0.242-1.14,0.726c-0.253,0.484-0.495,0.841-0.726,1.071l-1.313,3.593
		c-0.231,0.599-0.346,1.083-0.346,1.452c0,0.368,0.253,0.599,0.76,0.691h1.106c0.368,0.369,0.599,0.68,0.691,0.933
		c0.092,0.253,0.115,0.541,0.069,0.864l-2.902,7.947c-0.138,0.415-0.138,0.944,0,1.59c0.138,0.645,0.391,0.967,0.76,0.967l14.996,0
		c0.369,0,0.772-0.207,1.209-0.622c0.438-0.415,0.818-1.06,1.14-1.935l1.797-4.768c0.277-0.783,0.403-1.44,0.38-1.97
		s-0.127-1.002-0.311-1.417c-0.184-0.415-0.391-0.806-0.622-1.175s-0.438-0.76-0.622-1.175c0.921-0.415,1.889-1.06,2.902-1.935
		C283.523,26.491,284.237,25.455,284.652,24.257L284.652,24.257z M332.958,15.065c0.46,0,1.002-0.219,1.624-0.656
		c0.622-0.438,1.117-1.117,1.486-2.039l3.594-9.813c0.414-1.198,0.495-1.924,0.242-2.177C339.649,0.126,339.062,0,338.141,0h-38.354
		c-0.368,0-0.852,0.23-1.451,0.691c-0.599,0.461-1.037,1.083-1.313,1.866l-13.614,37.248c-0.276,0.783-0.276,1.405,0,1.866
		c0.277,0.46,0.599,0.691,0.967,0.691l39.253,0c0.507,0,0.898-0.241,1.174-0.725c0.277-0.484,0.507-0.841,0.691-1.071l1.383-3.663
		c0.23-0.599,0.357-1.083,0.38-1.451c0.023-0.369-0.219-0.599-0.726-0.691l-19.419,0c-0.599,0-1.094-0.15-1.486-0.449
		c-0.392-0.299-0.564-0.634-0.518-1.002l1.382-3.87c0.231-0.553,0.553-0.922,0.967-1.106c0.415-0.184,0.922-0.276,1.521-0.276
		l15.411,0c0.461,0,0.841-0.173,1.14-0.518c0.3-0.346,0.564-0.772,0.795-1.278l1.313-3.663c0.23-0.599,0.357-1.083,0.38-1.451
		s-0.219-0.599-0.726-0.691h-15.756c-0.876,0-1.348-0.115-1.417-0.346c-0.069-0.23-0.012-0.599,0.173-1.106l3.663-10.09
		c0.46-0.553,0.794-0.898,1.002-1.036c0.207-0.138,0.61-0.207,1.209-0.207h2.35c0.507,0.276,0.668,0.783,0.484,1.52l-1.175,3.11
		c-0.276,0.829-0.334,1.498-0.173,2.004c0.162,0.506,0.518,0.76,1.071,0.76L332.958,15.065L332.958,15.065z"/>
    </symbol>

    <symbol id="inspire-2" viewBox="0 0 416.4 42.46">
        <path d="M40.427 42.461c.507 0 .922-.23 1.244-.691.322-.461.53-.806.622-1.037l1.313-3.663c.23-.599.368-1.094.415-1.486.046-.391-.184-.633-.691-.725h-9.122c-.461 0-.68-.184-.657-.553.023-.369.057-.737.103-1.106l8.639-23.842c.23-.369.484-.737.76-1.106.277-.369.622-.553 1.037-.553h9.122c.553-.092.956-.334 1.209-.726.253-.392.495-.887.725-1.486l1.313-3.663c.092-.23.138-.576.138-1.037 0-.461-.253-.691-.76-.691H16.102c-.507 0-.899.253-1.175.76s-.53.875-.76 1.106l-1.244 3.524c-.23.599-.368 1.094-.415 1.486-.046.391.184.634.691.726h8.984c.599 0 .944.161 1.037.484.092.323.046.714-.138 1.175l-8.777 24.187c-.415.875-1.083 1.313-2.004 1.313H3.317c-.553.092-.956.334-1.209.725-.253.392-.495.887-.725 1.486L.07 40.662c0 .138-.012.3-.035.484A4.93 4.93 0 000 41.77c0 .184.046.346.138.484.092.138.277.207.553.207h39.736zm47.892 0H74.221c-.23 0-.496-.115-.795-.346-.3-.23-.541-.576-.726-1.037L71.594 26.98l-.346-.207h-.068c-.046 0-.115-.046-.207-.138l-4.699 13.061c-.737 1.843-1.704 2.764-2.902 2.764H47.96c-.553 0-.922-.242-1.106-.726-.184-.484-.092-1.163.276-2.039L60.607 2.656c.276-.783.714-1.405 1.313-1.866.599-.461 1.083-.691 1.451-.691h15.825c.645 0 1.037.852 1.175 2.557l1.037 14.927 5.39-14.858c.323-.783.783-1.417 1.382-1.9.599-.484 1.083-.726 1.451-.726h14.098c.368 0 .702.242 1.002.726.299.484.288 1.117-.035 1.9L91.29 39.697c-.369.875-.818 1.555-1.348 2.039-.529.484-1.07.725-1.623.725zm56.805-27.297c.461 0 1.002-.219 1.624-.656.622-.438 1.117-1.117 1.486-2.039l3.11-8.569c.185-.507.219-.99.104-1.451a2.695 2.695 0 00-.657-1.209 3.622 3.622 0 00-1.175-.83 3.348 3.348 0 00-1.382-.311h-31.927c-.737 0-1.532.15-2.384.449a9.997 9.997 0 00-2.453 1.278 12.169 12.169 0 00-2.142 1.935 7.675 7.675 0 00-1.451 2.419l-5.805 15.964c-.322.875-.438 1.681-.346 2.419.092.737.346 1.382.76 1.935.415.553.933.979 1.555 1.278a4.492 4.492 0 001.97.449h16.862c.507.046.875.173 1.106.38.23.208.184.703-.138 1.486l-1.106 3.041c-.323.829-.875 1.325-1.659 1.486-.783.161-1.405.242-1.866.242H99.307c-.553 0-1.094.253-1.624.76s-.956 1.175-1.278 2.004l-.829 2.281c-.276.783-.276 1.405 0 1.866.276.461.599.691.967.691h34.554c.737 0 1.532-.15 2.384-.449a9.963 9.963 0 002.453-1.278 12.169 12.169 0 002.142-1.935 7.686 7.686 0 001.451-2.419l3.524-9.675c.323-.875.438-1.682.345-2.419-.092-.737-.334-1.382-.726-1.935a3.903 3.903 0 00-1.52-1.278 4.632 4.632 0 00-2.039-.449h-15.756c-.461-.046-.818-.173-1.071-.38-.254-.207-.219-.702.104-1.486l3.386-9.33c.322-.829.875-1.324 1.659-1.486s1.428-.242 1.935-.242h.967c.368 0 .622.173.76.518.138.346.161.703.069 1.071l-1.175 3.11c-.276.829-.334 1.497-.173 2.004.161.507.518.76 1.071.76h14.237zm45.888 8.984c-.277.829-.737 1.612-1.382 2.35a12.169 12.169 0 01-2.142 1.935c-.783.553-1.589.979-2.419 1.278-.829.299-1.612.449-2.35.449h-14.512c-.507-.092-.76-.323-.76-.691 0-.369.115-.852.346-1.451l1.313-3.594c.23-.231.472-.587.726-1.071.253-.484.633-.726 1.14-.726h.967c.553-.046 1.014-.173 1.382-.38.368-.207.691-.702.967-1.486l4.146-11.334c.138-.415.15-.737.035-.967-.115-.23-.311-.403-.587-.518a2.855 2.855 0 00-.899-.207 11.935 11.935 0 00-.829-.035c-.691 0-1.359.173-2.004.518-.645.346-1.06.749-1.244 1.209l-10.988 30.269c-.737 1.843-1.704 2.764-2.902 2.764h-15.411c-.553 0-.921-.242-1.106-.726-.184-.484-.092-1.163.276-2.039l13.476-37.041c.276-.783.714-1.405 1.313-1.866.599-.461 1.083-.691 1.451-.691h34.553c.737 0 1.428.15 2.073.449a3.858 3.858 0 011.555 1.278c.392.553.633 1.198.726 1.935.092.737-.023 1.543-.346 2.419l-6.564 17.97zm38.769 18.313c.507 0 .921-.23 1.244-.691.322-.461.53-.806.622-1.037l1.313-3.663c.23-.599.368-1.094.415-1.486.046-.391-.184-.633-.691-.725h-9.122c-.461 0-.68-.184-.656-.553.023-.369.057-.737.103-1.106l8.639-23.842c.23-.369.484-.737.76-1.106.277-.369.622-.553 1.037-.553h9.122c.553-.092.956-.334 1.21-.726.253-.392.495-.887.725-1.486l1.313-3.663c.092-.23.138-.576.138-1.037 0-.461-.254-.691-.76-.691h-39.736c-.507 0-.899.253-1.175.76s-.53.875-.76 1.106l-1.244 3.524c-.23.599-.368 1.094-.415 1.486-.046.391.185.634.691.726h8.984c.599 0 .944.161 1.037.484.092.323.046.714-.138 1.175l-8.777 24.187c-.415.875-1.083 1.313-2.004 1.313h-8.984c-.553.092-.956.334-1.209.725-.253.392-.495.887-.725 1.486l-1.313 3.594c0 .138-.012.3-.035.484a5.042 5.042 0 00-.035.622c0 .184.046.346.138.484.092.138.277.207.553.207h39.735v.002zm54.871-18.106c-.415 1.198-1.129 2.235-2.142 3.11-1.014.875-1.981 1.52-2.902 1.935.184.415.391.806.622 1.175.23.369.438.76.622 1.175.184.415.288.887.311 1.417.023.53-.104 1.186-.38 1.97l-1.797 4.768c-.323.875-.703 1.52-1.14 1.935-.438.415-.841.622-1.209.622h-14.996c-.368 0-.622-.323-.76-.967-.138-.645-.138-1.175 0-1.589l2.902-7.947c.046-.322.023-.61-.069-.864-.092-.253-.323-.564-.691-.933h-1.105c-.507-.092-.76-.323-.76-.691 0-.369.115-.852.345-1.451l1.313-3.594c.23-.231.472-.587.726-1.071.253-.484.633-.726 1.14-.726h.967c.553-.046 1.014-.173 1.382-.38.368-.207.691-.702.967-1.486l4.146-11.334c.138-.415.15-.737.035-.967-.115-.23-.311-.403-.587-.518a2.855 2.855 0 00-.899-.207 11.935 11.935 0 00-.829-.035c-.691 0-1.359.173-2.004.518-.645.346-1.06.749-1.244 1.209l-10.988 30.269c-.737 1.843-1.704 2.764-2.902 2.764h-15.411c-.553 0-.922-.242-1.106-.726-.184-.484-.092-1.163.276-2.039L249.96 2.656c.276-.783.714-1.405 1.313-1.866.599-.461 1.083-.691 1.451-.691h34.554c.737 0 1.428.15 2.073.449a3.858 3.858 0 011.555 1.278c.392.553.634 1.198.726 1.935.092.737-.023 1.543-.346 2.419l-6.634 18.175zm48.305-9.191c.461 0 1.002-.219 1.624-.656.622-.438 1.117-1.117 1.486-2.039l3.594-9.813c.415-1.198.495-1.924.242-2.177-.253-.253-.841-.38-1.762-.38h-38.354c-.368 0-.852.23-1.451.691-.599.461-1.037 1.083-1.313 1.866l-13.614 37.249c-.276.783-.276 1.405 0 1.866.276.461.599.691.967.691h39.253c.507 0 .898-.242 1.175-.726s.507-.841.691-1.071l1.382-3.663c.23-.599.357-1.083.38-1.451.023-.369-.219-.599-.726-.691h-19.419c-.599 0-1.094-.15-1.486-.449-.392-.299-.564-.634-.518-1.002l1.382-3.87c.23-.553.553-.922.967-1.106.415-.184.922-.276 1.52-.276h15.411a1.44 1.44 0 001.14-.519c.3-.345.564-.772.795-1.278l1.313-3.663c.23-.599.357-1.083.38-1.451.023-.368-.219-.599-.726-.691h-15.756c-.875 0-1.348-.115-1.417-.345-.069-.23-.012-.599.173-1.105l3.663-10.09c.461-.553.795-.898 1.002-1.037.207-.138.61-.208 1.209-.208h2.35c.507.277.668.783.484 1.521l-1.175 3.11c-.276.829-.334 1.497-.173 2.004.161.507.518.76 1.071.76h14.236zm54.504-.09c.553 0 1.095-.253 1.625-.76s.933-1.175 1.21-2.005l1.175-3.112c.184-.369.461-.726.83-1.072.369-.346.738-.519 1.106-.519h.968c.231 0 .507.012.83.035.323.023.611.081.864.173.253.092.449.242.588.45.138.207.138.495 0 .864L393.2 18.67c-.415.784-.795 1.279-1.141 1.487a2.868 2.868 0 01-1.21.38h-16.596c-.738 0-1.533.15-2.385.449-.853.3-1.66.726-2.42 1.279a12.762 12.762 0 00-2.109 1.936 7.694 7.694 0 00-1.452 2.42l-4.425 12.101c-.323.876-.507 1.556-.553 2.04-.046.484.023.853.207 1.106.185.254.473.403.864.45.392.046.911.069 1.556.069h37.409c.369 0 .853-.23 1.452-.691.599-.461 1.037-1.083 1.314-1.867l.83-2.282c.323-.83.403-1.498.242-2.005-.161-.507-.518-.761-1.072-.761h-19.845c-.461 0-.841-.092-1.141-.277-.3-.184-.311-.668-.034-1.452l1.106-3.042c.323-.784.668-1.279 1.037-1.487.369-.207.807-.334 1.314-.38h15.697c.691 0 1.464-.15 2.316-.45a9.99 9.99 0 002.454-1.279 12.148 12.148 0 002.144-1.936 7.694 7.694 0 001.452-2.42l5.809-15.973c.322-.876.438-1.683.346-2.42-.092-.738-.334-1.383-.726-1.936A3.857 3.857 0 00414.084.45a4.867 4.867 0 00-2.075-.45h-31.947c-.461 0-.991.104-1.59.311-.599.208-1.187.484-1.763.83s-1.095.749-1.556 1.21c-.461.461-.784.945-.968 1.452l-3.112 8.574c-.369.922-.38 1.602-.035 2.04.346.438.749.657 1.21.657h15.213zm-37.099 13.044c3.356 0 6.094-2.737 6.094-6.093s-2.737-6.094-6.094-6.094c-3.356 0-6.093 2.737-6.093 6.094 0 3.356 2.737 6.093 6.093 6.093z"/>
    </symbol>

    <symbol id="mono" viewBox="0 0 368.504 62.068">
        <path d="M86.134,9.387h15.162v1.805L65.688,62.068h27.797l35.464-49.794L109.237,0
		H15.019L0,20.939l19.711,12.273L38.844,9.387h15.161v1.805L32.187,41.216l19.567,12.129L86.134,9.387L86.134,9.387z M253.369,0
		L253.369,0l-0.002,22.278L261,11.191L268.942,0l19.71,12.274l-15.016,20.938h-20.27h-7.525h-0.001l0.001-0.003l0.001-23.861
		l-19.136,23.863l-19.71-12.273L222.013,0h23.831h7.497H253.369L253.369,0z M208.8,12.274L208.8,12.274l-15.017,20.938h-46.929
		l-19.71-12.273L142.161,0h46.929L208.8,12.274L208.8,12.274z M154.795,22.022L154.795,22.022v1.805h15.163l11.191-12.635V9.387
		h-15.162L154.795,22.022L154.795,22.022z M253.341,0L253.341,0l115.163,12.274L348.794,0h-46.928l-15.018,20.939l19.709,12.273
		h46.93l15.017-20.938L253.341,0L253.341,0z M314.5,22.022L314.5,22.022L325.69,9.387h15.162v1.805l-11.191,12.635H314.5V22.022
		L314.5,22.022z"/>
    </symbol>

    <symbol id="mono-2" viewBox="0 0 482 77">
        <path d="M324.91 34.72L336.47 21.67H352.13V23.53L340.57 36.59H324.91V34.72ZM261.73 11.97L380.7 24.65L360.34
        11.97H311.86L296.34 33.6L316.7 46.28H365.18L380.69 24.65L261.73 11.97ZM159.92 34.72V36.58H175.58L187.14
        23.52V21.66H171.48L159.92 34.72ZM215.71 24.65L200.2 46.28H151.72L131.35 33.6L146.87 11.97H195.35L215.71
        24.65ZM261.76 11.97V34.98L269.64 23.53L277.85 11.97L298.21 24.65L282.7 46.28H253.99V21.63L234.22 46.28L213.85
        33.6L229.36 11.97H261.76V11.97ZM88.98 21.67H104.64V23.53L67.86 76.09H96.57L133.21 24.65L112.85 11.97H15.52L0
        33.6L20.36 46.28L40.13 21.67H55.79V23.53L33.25 54.55L53.46 67.08L88.98 21.67ZM461.52 0H418.05L407.46
        15.02H428.29L432.61 9.7H453.32V11.57L441.75 24.63L400.64 24.57L385.25 46.29L405.46 58.88H449.15L458.35
        45.9H417.57L416.55 44.11L425.1 34.34H466.37L481.89 12.7L461.52 0Z"/>
    </symbol>

    <symbol id="rage" viewBox="0 0 325.985 57.702">
        <path d="M8.275,0h68.822c4.42,0,7.972,2.119,10.656,6.378
		c0.303,1.493,0.464,2.684,0.464,3.552c0,2.805-1.17,6.196-3.552,10.172c-4.844,4.258-12.957,6.378-24.36,6.378v0.242
		c5.913,3.592,14.35,10.676,25.309,21.292c4.581,5.389,6.862,8.154,6.862,8.275c0.626,0.787,0.949,1.251,0.949,1.413l-0.242,0
		C65.431,41.273,44.542,30.859,30.516,26.48l-3.31,0c-0.323,0-1.817,4.259-4.501,12.775c-0.867,2.482-1.494,3.895-1.897,4.258
		l-20.344,0L0,43.271C4.581,30.355,8.598,18.285,12.069,7.084V5.671c0-1.615-1.271-3.43-3.794-5.449V0L8.275,0z M30.516,17.014
		h34.532c1.09-3.31,1.655-5.187,1.655-5.671v-0.706c0-1.11-0.565-1.655-1.655-1.655H38.084c-3.27,0-5.328,1.272-6.156,3.794
		L30.516,17.014L30.516,17.014z M88.983,0h66.461c6.66,0,10.999,2.523,13.018,7.569c0.141,1.05,0.222,1.917,0.222,2.604
		c0,3.067-3.451,14.188-10.394,33.341l-21.05,0l-0.484-0.242c2.845-7.689,4.501-12.412,4.965-14.188l-34.511,0
		c-0.323,0-1.817,4.259-4.501,12.775c-0.444,1.11-0.747,1.655-0.948,1.655l-21.051,0C88.601,19.9,92.536,7.831,92.536,7.326V4.965
		c0-1.534-1.191-3.047-3.552-4.5V0L88.983,0z M109.792,20.102h34.774c1.736-5.167,2.603-8.012,2.603-8.517v-0.706
		c0-1.11-0.545-1.655-1.655-1.655h-30.273c-1.695,0-2.967,2.119-3.794,6.378C111.346,15.601,110.781,17.095,109.792,20.102
		L109.792,20.102z M182.892,0h61.012v0.222c-5.672,6.317-14.189,9.466-25.531,9.466h-19.395c-2.019,0-3.432,2.22-4.259,6.62
		c-0.162,0.201-2.14,5.954-5.913,17.276l33.341,0c1.574,0,2.846-1.574,3.794-4.743c0-1.736-1.352-2.583-4.016-2.583h-26.257v-0.484
		c7.448-5.671,13.038-8.517,16.792-8.517h17.034c12.452,0.787,18.668,3.229,18.668,7.326c-1.877,8.376-3.472,12.554-4.723,12.554
		c-3.815,4.258-13.058,6.378-27.67,6.378l-31.222,0c-11.161-0.706-17.236-2.684-18.204-5.913c-0.323-0.747-0.484-1.453-0.484-2.119
		c6.317-20.586,9.788-31.626,10.414-33.119C177.766,0.787,179.965,0,182.892,0L182.892,0z M255.266,0h70.719v0.222
		c-6.337,5.853-12.332,8.759-17.962,8.759h-23.431c-3.27,0-5.308,1.272-6.136,3.794l-1.432,4.238h36.913v0.243
		c-7.104,6.155-12.937,9.223-17.518,9.223l-22.463,0c-1.251,2.845-1.897,4.662-1.897,5.449l0,0.222
		c0.202,1.433,1.07,2.14,2.603,2.14l24.603,0c7.064,0,12.492,2.907,16.327,8.76v0.464h-46.359c-10.697,0-17.155-2.119-19.395-6.377
		l-0.242-1.655c5.53-17.982,8.436-27.992,8.759-30.051c0-2.119-1.029-3.774-3.088-4.965V0L255.266,0z"/>
    </symbol>

    <symbol id="twiist" viewBox="0 0 404.259 110.911">
        <path d="M169.181,68.805c-0.869,5.897-0.613,11.654,0.819,15.727l2.138,6.083
        l0.77-0.173l-0.191-1.602l11.844-0.609c0.001,0.005-2.585,7.908-2.842,9.961l-2.015,0.427c-2.494,0.489-5.863,2.287-10.14,5.429
        c-2.69,0.484-5.904-3.467-9.655-11.891c-2.122-6.455-3.071-11.791-4.1-18.613l-0.062-0.414l0.34-9.814l14.324-2.862L169.181,68.805
        L169.181,68.805z M296.542,60.555L296.542,60.555c-3.014-0.351-6.094-0.251-9.877-0.611l-21.149-0.965
        c-0.908-0.041-3.004-1.337-5.11-5.885l0.844-0.834l31.839,0.524v-0.378l-3.033-3.812l0.126-1.242l15.227-0.99
        c0.948,0.084,1.917,1.916,2.907,5.497c14.805-1.285,22.344-3.075,22.597-5.371l0.485-0.316l0.8,0.064
        c3.117,2.148,5.18,5.833,6.17,11.056c-0.197,1.316-25.262,2.856-27.947,3.012c1.474,7.645,5.455,16.006,11.899,25.061l4.823,3.938
        c1.474-3.159,2.359-5.939,2.654-8.319l0.063-0.927c6.697,1.896,10.025,3.138,9.982,3.749l0.316,0.864l-0.063,0.442
        c-1.77,5.876-4.338,8.634-7.708,8.255l-10.488,0.99c-3.917-1.727-8.318-5.223-13.204-10.488l-6.613-10.656
        C298.269,66.135,296.417,61.902,296.542,60.555L296.542,60.555z M196.238,68.805L196.238,68.805l1.231-8.351l-14.324,2.862
        l-0.34,9.814l0.062,0.414c1.029,6.823,1.978,12.159,4.1,18.613c3.751,8.425,6.965,12.375,9.655,11.891
        c4.277-3.142,7.645-4.94,10.14-5.429l2.014-0.427c0.257-2.053,2.843-9.956,2.842-9.961l-11.843,0.609l0.19,1.602l-0.77,0.173
        l-2.138-6.083C195.625,80.459,195.369,74.702,196.238,68.805L196.238,68.805z M195.98,49.774L195.98,49.774
        c0.381,4.783-2.875,5.188-5.633,5.293c-2.454,0.093-4.181,0.617-6.158-2.036c-4.144-5.563-3.329-9.207-0.742-10.359
        c1.167-0.52,3.255-0.592,4.711-0.61c0.962-0.012,2.853,0.164,3.853,0.428C194.731,43.212,195.661,45.768,195.98,49.774
        L195.98,49.774z M143.471,36.88L143.471,36.88l-13.66,0.321l-0.064,0.386l3.768,6.144c5.859,14.12,7.207,25.801,1.434,39.758
        l-0.749-1.006c-1.306-1.799-3.833-6.894-7.601-15.308l-8.586-22.01l-6.145-0.257c-4.389-0.45-7.429,0.557-9.099,3.019l-0.128,0.814
        c2.419,7.536,3.297,14.367,2.633,20.511l-0.3,3.082c-0.557,5.054-2.419,9.956-5.588,14.731c-6.809-5.613-6.861-18.456-5.031-26.398
        l0.128-1.392l-0.364-0.428l-13.874,1.991c-0.128,3.982,0.171,8.264,0.878,12.868c2.719,14.923,7.451,22.759,14.173,23.465
        c4.775,0.535,8.221-0.258,10.363-2.398c6.402-7.814,9.827-14.023,10.277-18.626L127.114,94.9c8.989,0.329,11.116,0.747,18.37,1.52
        C156.305,77.452,154.281,55.49,143.471,36.88L143.471,36.88z M263.094,38.18L263.094,38.18c1.948-7.462-9.367-8.849-21.081-1.898
        c-8.784,5.213-15.895,10.782-23.796,17.692c-9.384,8.206-20.394,17.92-19.574,27.025c0.115,1.286,1.816,1.859,3.685,2.058
        c5.15,0.55,18.171-3.368,39.452-10.561c3.068-1.037,31.311-5.701,40.578-3.678c2.269,0.495,1.56,2.898,1.199,4.108
        c-1.236,4.137-3.084,6.446-12.374,15.508c-5.628,5.49-10.179,9.508-14.071,11.63c2.393-4.084,3.797-7.977,4.211-11.678
        c0.303-2.871,0.176-5.727-0.383-8.567c-1.5-3.143-3.989-5.361-7.482-6.669c-6.908,1.515-10.385,2.457-10.418,2.792l-0.096,0.941
        l0.941,0.415v-0.271l3.829,1.356c1.994,3.431,2.824,6.797,2.473,10.13c-0.526,4.802-2.345,10.498-5.472,17.07l0.144,2.01
        l-0.096,0.606l9.222,2.617l0.654,0.096c0.622-2.026,3.956-4.627,10.003-7.802c21.122-14.932,32.65-25.143,33.135-30.806
        c0.37-4.328-2.952-7.631-6.797-9.12c-6.468-2.506-15.918-1.225-20.951-0.823c-5.592,0.445-14.538,1.896-24.212,4.335
        c-12.471,3.144-26.038,7.304-33.968,6.485c-1.07-0.11-1.362-1.34-1.31-2.048c0.27-3.684,14.483-14.952,17.298-17.146
        c2.005-1.561,25.986-20.048,20.437-8.611l-0.367,0.335c-3.366,6.477-6.7,11.136-10.003,13.975l-0.048,0.655l0.24,0.319l12.938-1.26
        C255.87,52.918,259.999,45.925,263.094,38.18L263.094,38.18z M36.136,59.496L36.136,59.496c-3.014-0.351-6.094-0.251-9.877-0.611
        L5.11,57.92C4.202,57.879,2.106,56.583,0,52.035l0.844-0.834l31.838,0.524v-0.378l-3.033-3.813l0.126-1.242l15.227-0.99
        c0.948,0.084,1.917,1.917,2.907,5.497c14.805-1.285,22.344-3.075,22.597-5.371l0.485-0.316l0.801,0.064
        c3.117,2.148,5.181,5.833,6.17,11.056c-0.197,1.316-25.262,2.856-27.946,3.012c1.474,7.645,5.455,16.006,11.899,25.061l4.823,3.938
        c1.474-3.159,2.359-5.939,2.654-8.319l0.063-0.927c6.697,1.896,10.025,3.138,9.982,3.749l0.316,0.864l-0.062,0.442
        c-1.769,5.876-4.339,8.634-7.709,8.255l-10.488,0.99c-3.917-1.727-8.318-5.223-13.204-10.488l-6.613-10.656
        C37.862,65.077,36.01,60.844,36.136,59.496L36.136,59.496z M168.923,49.774L168.923,49.774c0.381,4.783-2.874,5.188-5.632,5.293
        c-2.454,0.093-4.181,0.617-6.158-2.036c-4.144-5.563-3.329-9.207-0.742-10.359c1.167-0.52,3.255-0.592,4.711-0.61
        c0.962-0.012,2.853,0.164,3.853,0.428C167.674,43.212,168.604,45.768,168.923,49.774L168.923,49.774z M371.103,2.922
        c-0.781-0.929-1.606-1.536-2.488-1.536c-1.338,0-7.611-0.705-6.513,1.19c1.614,2.783,4.333,3.855,5.629,9.291
        c0.759,3.185-0.171,7.373,0.283,8.046c0.353,1.125,4.977-0.839,5.303-1.044c1.113-0.698,4.541-0.474,4.908-0.894
        c1.04-1.191-1.847-4.964-3.917-9.185c2.67-0.532,5.496-1.712,8.053-1.215c9.626,1.876,8.555,6.052,3.81,12.142
        c-2.35,3.016-5.684,5.019-8.508,7.168c-2.103,1.6-4.284,3.063-6.411,4.598c-2.212,1.597-4.471,3.164-6.731,4.683
        c-2.25,1.512-4.429,3.202-6.818,4.427c-2.566,1.315-3.549,2.326-3.045,3.845c0.566,1.704,0.604,3.363,0.439,4.893
        c0.53,0.452,1.07,0.894,1.6,1.341c2.124-0.327,4.522-0.572,7.165-0.733c2.638-0.16,5.55-0.238,8.716-0.236
        c3.169,0.002,6.593,0.105,10.275,0.281c3.686,0.176,7.641,0.431,11.846,0.728c0.829,0.059,1.031-1.137,0.814-3.424
        c-0.216-2.278-0.648-5.713-1.3-10.28c-1.434-1.095-3.73-1.282-6.914-0.838c-0.663,0.092-1.284-0.025-1.921-0.04
        c-0.38,0.337-0.755,0.672-1.124,1.004c1.553,2.334,2.173,4.091,1.911,5.271c-3.639,0.266-6.915,0.411-9.825,0.416
        c-2.906,0.005-5.453-0.12-7.636-0.371c0.225-0.332,0.46-0.673,0.685-1.009c3.95-2.952,7.598-5.841,11.093-8.438
        c3.444-2.558,6.561-4.964,9.316-7.253c2.756-2.289,5.148-4.442,7.1-6.53c3.853-4.12,6.179-7.825,6.609-11.064
        c0.426-3.218-2.441-5.683-8.203-6.912c-3.137-0.668-6.78-0.624-10.809-0.347c-2.018,0.139-4.147,0.382-6.378,0.718
        C375.887,1.954,373.549,2.391,371.103,2.922L371.103,2.922z"/>
    </symbol>

    <symbol id="twiist-3" viewBox="0 0 409.8 104.2">
        <path d="M109.4,85.1c-0.6,2.9-7.7,3.9-11.7,2.5c-1.3-0.3-2.3-0.8-2.9-1.5C89.1,79,85,70.8,82.1,62.3c-2,12.5-3.1,25.2-3.4,37.7
        c0,0.7-0.4,1.3-0.9,1.8c-2.3,2.3-9.2,3-12.2,1.3c-0.9-0.5-1.5-1.1-1.5-2v0c-11.6-25.7-14.7-54.4-8.8-81.6
        c-7.6,0.1-15.7,0.2-23.7,0.9c-1.9,25.8-2.8,51.6-2.8,77.4c0,4.8-14.7,5.5-14.7,1.1c0-25.5,0.9-51,2.7-76.5c-4.5,0.9-8.9,2-13,3.5
        C-1.6,27.8-1,15.6,4,13.8c16.6-6,37-6.4,54.8-6.5c3.3-3,15-2.6,13.6,1.9c-5.2,16.7-6.7,34.5-4.7,51.9c1.9-12,4.6-23.8,8.1-35.5
        c0-0.1,0-0.1,0-0.2c0,0,0,0,0,0c0.5-1.7,3.2-2.7,6.2-3c3.9-0.5,8.2,0.4,8.3,2.8C90.9,38.2,93,52,98.1,64.8c2.3-20.2,2-40.5-1-60.7
        c-0.7-4.5,14-5.7,14.7-1.1C115.9,30.5,114.8,57.8,109.4,85.1z M125.9,45.9c0,13.2,0.3,26.4,1,39.6c0.2,4.5,14.9,3.6,14.7-1.1
        c-0.7-13.2-1-26.4-1-39.6C140.5,40.3,125.9,41.1,125.9,45.9z M128.1,12.2c-1.6,7.6-2,15.5-2.1,23.2c-0.1,4.4,14.6,3.7,14.7-1.1
        c0.1-5.3,0.4-10.6,1-15.9c0.2-1.5,0.4-2.9,0.6-4.3c0.1-0.7,0.3-1.5,0.2-1.2C143.5,7.8,128.9,8,128.1,12.2z M152.8,46.2
        c0,11.8,0.3,23.7,0.9,35.5c0.2,4.1,13.4,3.3,13.2-1C166.3,68.9,166,57,166,45.2C165.9,41.2,152.8,41.9,152.8,46.2z M154.8,16
        c-1.4,6.9-1.8,13.9-1.9,20.8c-0.1,4,13.1,3.3,13.2-1c0.1-4.8,0.3-9.5,0.9-14.2c0.2-1.3,0.3-2.6,0.5-3.9c0.1-0.6,0.2-1.3,0.2-1
        C168.6,12,155.5,12.2,154.8,16z M227.1,43.5c-10.6-6-29.3-8.1-33.5-19.4c-1.3-3.6-1-8.9,4.5-8.8c8.1,0.2,16.1,13.8,18.9,19.7
        c0.1,0.8,0.6,1.4,1.4,1.8c2.6,1.5,8.4,1.1,11.3-0.6c0.1-0.1,0.3-0.2,0.4-0.3c0,0,0,0,0,0c0.8-0.6,1.3-1.3,1.3-2.2
        c0.1-7.8,1.7-15.8,5.1-23.1c2.1-4.6-12.3-4.8-14.2-0.7c-1.1,2.4-2,4.9-2.7,7.4c-7.3-6.6-16.9-11.2-27.6-9.1
        c-10.4,2-16.3,10.9-12.2,19.1c8.2,16,35.6,14.7,45.6,29.5c7.7,11.4,1.9,28.3-17.4,24.5c-15.9-3.2-20.1-30.4-2.9-24.6
        c4.6,1.5,17.5-2.9,9.8-5.4c-17.4-5.8-40.4-0.2-35.6,18.7c4.6,18.5,33,22.2,50.6,14.8C252.1,75.7,244.5,53.4,227.1,43.5z M306.3,5.9
        c-18.1,0.1-39,0.4-55.9,6.5c-5,1.8-5.6,14-0.4,12.1c4.1-1.5,8.5-2.6,13-3.5c-1.6,21.4-2.6,42.9-2.7,64.4c0,4.5,14.7,3.7,14.7-1.1
        c0-21.8,1.1-43.6,2.7-65.3c8.8-0.7,17.7-0.9,26-0.9C309.6,18.1,311.6,5.9,306.3,5.9z M407,44.7c-4.8-10.1-14.7-15-26-16.5
        c5.5-2.5,10.8-5.1,16.1-7.8c5.3-1.9,7-13.6,1.2-14c-15.7-1.1-31.6-0.9-47.4-0.4c-6.9,0.2-9.1,14.5-3,14.3c9.2-0.3,18.5-0.5,27.8-0.3
        c-7.5,3.6-15.1,7-22.7,10.4c-8.1,3.6,5.4,6.6,9,5.9c32.2-6.2,37.9,27.6,20.8,43.6c-6.8,6.3-25,6.3-31.8-5.7
        c-3.8-6.7-5.1-18.2,0.4-23.4c3.1-2.8-9.1-7.9-13.5-4.7c-20.9,20.1,14.1,66.2,53.2,42C406.6,78.5,414.3,60.1,407,44.7z"/>
    </symbol>

    <symbol id="falcon-plus" viewBox="0 0 57.798 12.319">
        <path d="M0,12.319l1.77-4.552c0.589-1.513,2.274-2.49,4.392-2.49h5.74l-0.814,1.838H6.346
        c-0.448,0-0.793,0.774-0.528,0.774h4.927L10,9.573H5.07l-1.217,2.746H0L0,12.319z M14.768,6.396c-1.415,0-3.774,0.698-4.029,2.765
        c-0.088,0.716,0.673,1.918,2.11,1.918h2.204l0.595-1.338h-1.127c-1.371,0-0.786-1.945,0.827-1.945h1.725l-1.438,3.283h2.732
        l2.066-4.683H14.768L14.768,6.396z M21.607,5.233l-2.584,5.845h2.971l2.575-5.845H21.607L21.607,5.233z M29.722,11.079l0.739-1.66
        h-2.831c-0.742,0-0.773-0.368-0.729-0.583c0.076-0.37,0.503-0.738,1.305-0.738L31.038,8.1l0.832-1.885h-3.724
        c-1.792,0-3.649,0.84-4.31,1.953c-0.924,1.557,0.195,2.91,1.545,2.91L29.722,11.079L29.722,11.079z M35.633,6.151
        c-2.661,0.284-4.708,1.604-4.572,2.948c0.136,1.344,2.403,2.204,5.063,1.92c2.661-0.284,4.708-1.604,4.573-2.948
        C40.561,6.727,38.295,5.867,35.633,6.151L35.633,6.151z M35.607,8.016c-0.737,0.225-1.244,0.71-1.132,1.083
        c0.112,0.373,0.8,0.492,1.536,0.266c0.736-0.225,1.243-0.71,1.131-1.083C37.031,7.91,36.343,7.79,35.607,8.016L35.607,8.016z
         M39.802,11.085h3.352l1.183-2.674c0.096-0.22,1.409-0.177,1.336-0.001l-1.181,2.675h3.376l1.14-2.562
        c0.539-1.21-0.771-2.308-2.453-2.308h-4.594L39.802,11.085L39.802,11.085z M42.312,5.752c0.193-0.461,0.391-0.923,0.586-1.384
        c0.195-0.461,0.391-0.924,0.588-1.386c0.234-0.544,0.476-0.967,0.848-1.253c0.374-0.287,0.881-0.439,1.649-0.44
        c0.771-0.001,1.424,0.369,1.372,1.016c-0.013,0.165-0.054,0.345-0.175,0.641c-0.182,0.414-0.412,0.837-0.76,1.159
        c-0.346,0.319-0.813,0.539-1.464,0.54c-0.309,0-0.617-0.04-0.806-0.129c-0.176,0.411-0.35,0.822-0.525,1.234
        C43.187,5.751,42.75,5.752,42.312,5.752L42.312,5.752z M44.818,2.952c-0.075,0.179-0.143,0.359-0.154,0.496
        c-0.012,0.158,0.066,0.254,0.316,0.254c0.496-0.001,0.691-0.318,0.889-0.772c0.076-0.179,0.13-0.304,0.141-0.448
        c0.013-0.151-0.069-0.247-0.352-0.247C45.189,2.235,45.008,2.504,44.818,2.952L44.818,2.952z M50.374,0
        c-0.325,0.767-0.65,1.533-0.974,2.299c-0.324,0.766-0.647,1.532-0.971,2.299c-0.442,0.001-0.882,0.002-1.322,0.002
        c0.262-0.62,0.527-1.24,0.789-1.86c0.262-0.62,0.528-1.24,0.792-1.861C48.877,0.417,49.691,0.002,50.374,0L50.374,0z M54.118,1.315
        c-0.13,0.3-0.261,0.6-0.39,0.9c-0.129,0.3-0.259,0.6-0.388,0.899c-0.198,0.462-0.547,0.842-0.976,1.105
        c-0.429,0.264-0.939,0.413-1.464,0.414c-0.894,0.002-1.388-0.383-1.334-1.044c0.013-0.158,0.054-0.331,0.141-0.53
        c0.122-0.285,0.247-0.569,0.371-0.855c0.206-0.462,0.994-0.884,1.697-0.885c-0.137,0.316-0.274,0.632-0.408,0.948
        c-0.134,0.315-0.269,0.632-0.404,0.947c-0.033,0.089-0.057,0.172-0.063,0.241C50.888,3.607,50.978,3.69,51.22,3.69
        c0.389-0.001,0.657-0.235,0.787-0.539c0.138-0.317,0.276-0.634,0.416-0.951C52.639,1.71,53.47,1.316,54.118,1.315L54.118,1.315z
         M56.137,2.123L56.137,2.123c-0.363,0.001-0.545,0.145-0.555,0.263c-0.007,0.089,0.064,0.096,0.798,0.143
        c0.713,0.047,1.053,0.232,1.018,0.666c-0.071,0.882-1.207,1.428-2.327,1.43c-0.701,0.001-1.437-0.307-1.56-1.092
        c0.449-0.001,0.899-0.001,1.35-0.002c0.044,0.096,0.145,0.185,0.526,0.185c0.311,0,0.644-0.07,0.661-0.277
        c0.007-0.09-0.143-0.117-0.815-0.143c-0.662-0.033-1.05-0.17-1.013-0.618c0.073-0.902,1.064-1.407,2.218-1.409
        c1.002-0.002,1.434,0.472,1.348,1.064c-0.444,0.001-0.888,0.002-1.331,0.003C56.467,2.206,56.307,2.123,56.137,2.123L56.137,2.123z"
        />
    </symbol>

    <symbol id="rogue" viewBox="0 0 411.7945862 77.5299072">
        <path d="M69.7144318,30.1912842c-1.386734,1.3311768-2.9279022,2.4069214-4.6213379,3.2258301
        c-1.0306854,0.4983521-2.1152191,0.901123-3.2524719,1.2081299l30.312851,40.6402588
        c0.4677124,0.6268311,0.3387299,1.5143433-0.2879944,1.9820557c-0.2545471,0.1899414-0.5521851,0.2814331-0.8469849,0.2811279
        v0.0012207h-7.2842102c-0.4841461,0-0.9113159-0.243042-1.1670227-0.6135254l-31.026886-41.5734863H8.6618195v19.2070312
        c0,0.7827148-0.6346741,1.4173584-1.4173126,1.4173584H1.4173126C0.6346588,55.9672852,0,55.3326416,0,54.5499268V1.4173584
        C0,0.6346436,0.6346588,0,1.4173126,0h55.3558044c0.9133301,0,1.8297729,0.0632324,2.7476196,0.1893311
        c0.919281,0.1265259,1.8070984,0.3118896,2.6620178,0.5562134c0.8674011,0.2479858,1.702774,0.5533447,2.5041351,0.9155884
        c0.8047638,0.3640137,1.5698242,0.782959,2.2918091,1.2549438l0.0470581,0.0322876
        c1.2191772,0.791748,2.3238373,1.7027588,3.3114166,2.7314453c1.0048981,1.0465698,1.8864746,2.2104492,2.6430359,3.4902344
        c0.7684631,1.2991943,1.3459015,2.6604004,1.7311401,4.0825195c0.3843536,1.4193115,0.576828,2.8927612,0.576828,4.4189453
        c0,1.2158203-0.1233063,2.4035034-0.3687897,3.5617676c-0.2449036,1.1550903-0.6122742,2.2705078-1.1004028,3.3453369
        c-0.4869995,1.0718994-1.077179,2.0804443-1.769104,3.0238037c-0.6746521,0.9207153-1.4541779,1.7835693-2.3368835,2.5874634
        L69.7144318,30.1912842L69.7144318,30.1912842z M8.6618195,26.6817017h48.4183044
        c0.6335449,0,1.2478027-0.0581665,1.8416748-0.1735229c0.6023712-0.1170654,1.1933746-0.2930908,1.7724915-0.5266113
        c0.5887451-0.2375488,1.1347046-0.5167236,1.6361694-0.8362427c0.4983215-0.3174438,0.9665985-0.6842651,1.4039764-1.098999
        c0.4371185-0.4147339,0.83255-0.8637085,1.1854553-1.3452759c0.358017-0.4892578,0.6703949-1.0057373,0.9362946-1.5480957
        c0.2556763-0.522644,0.4495697-1.0748291,0.5793915-1.6550903c0.1272736-0.5675659,0.1913452-1.1769409,0.1913452-1.826355
        c0-0.6542969-0.0640717-1.2681885-0.1913452-1.8413696c-0.1298218-0.5842285-0.3251343-1.1480103-0.5847931-1.6897583
        c-0.2599182-0.5408325-0.5731506-1.0544434-0.9391174-1.5383301c-0.361969-0.4790649-0.765625-0.9141846-1.2095337-1.3039551
        c-0.4671326-0.4101562-0.963501-0.7747192-1.487915-1.0927734c-0.513916-0.3117676-1.0834045-0.5913086-1.7061615-0.8378906
        c-0.0354309-0.013916-0.0700226-0.02948-0.1037598-0.0458984c-0.5544434-0.2126465-1.12677-0.3751221-1.7157898-0.486145
        c-0.6111603-0.1156616-1.2498016-0.1735229-1.91539-0.1735229H8.6618195V26.6817017L8.6618195,26.6817017z M147.2442627,55.9672852
        h-39.4081116c-1.587677,0-3.1424866-0.1550293-4.6632843-0.4642944c-1.5105743-0.307312-2.9687042-0.7684937-4.3733063-1.3825073
        c-1.3895264-0.6068726-2.6985474-1.3265991-3.9259644-2.1582642c-1.2302246-0.8339233-2.3663635-1.7713623-3.4066772-2.8114014
        l-0.0053711-0.0053711c-1.040329-1.0405884-1.9777527-2.1762085-2.8114014-3.4066772
        c-0.8322601-1.227417-1.5522614-2.536438-2.1594391-3.9262695c-0.6137085-1.4051514-1.0749054-2.8638306-1.3821869-4.3744507
        c-0.3092651-1.5202026-0.4642944-3.0750122-0.4642944-4.6621704v-9.5838623c0-1.5625,0.1547546-3.1008301,0.4642944-4.6142578
        c0.3058624-1.4962158,0.7670593-2.956543,1.3821869-4.3790283c0.616806-1.4257812,1.3354034-2.74646,2.1540375-3.9608154
        c0.8039093-1.1928101,1.7186432-2.3062134,2.7416687-3.3391724c0.0238037-0.027771,0.0487671-0.0547485,0.0751343-0.0811157
        c1.0326538-1.0325928,2.1701965-1.9698486,3.4111938-2.8111572c1.2276917-0.8319092,2.5370026-1.5522461,3.9268188-2.1593628
        c1.4046021-0.6137085,2.8632965-1.0751953,4.374176-1.3825073C104.6936646,0.1550903,106.2484741,0,107.8361511,0h39.4081116
        c1.5831299,0,3.1390686,0.1550903,4.6663666,0.4645996c1.5151215,0.3070679,2.9834747,0.7679443,4.4033203,1.3825073
        c1.4255524,0.6167603,2.7459412,1.3353882,3.9603271,2.1537476c1.1950836,0.8052979,2.3093719,1.7200928,3.3414459,2.7425537
        c0.0272217,0.0234985,0.053894,0.0480957,0.0799255,0.0742188c1.0448914,1.0447998,1.9842834,2.185791,2.8165588,3.4205322
        c0.8183289,1.2143555,1.5366516,2.5350952,2.1534729,3.9605713c1.2313232,2.8457642,1.84729,5.8436279,1.84729,8.9932861v9.5838623
        c0,1.5874634-0.1550293,3.1419678-0.4645691,4.6621704c-0.307251,1.5106201-0.7687683,2.9692993-1.3827209,4.3744507
        c-0.6071777,1.3895264-1.3272095,2.6988525-2.1591797,3.9262695c-0.8334045,1.2302246-1.7710571,2.3660889-2.8108521,3.4066772
        l-0.0053711,0.0053711c-1.0530701,1.0524292-2.1922913,1.9918823-3.4165955,2.8170776
        c-1.2140503,0.8179932-2.5344543,1.5360107-3.9597321,2.1525879c-1.4198456,0.614624-2.8881989,1.0754395-4.4033203,1.3825073
        C150.3833313,55.8122559,148.8273926,55.9672852,147.2442627,55.9672852L147.2442627,55.9672852z M93.3057556,23.1920166v9.5838623
        c0,1.0185547,0.0946808,1.9885254,0.2831726,2.9089355c0.1885071,0.9204102,0.4759521,1.8187256,0.860321,2.692688
        c0.3877869,0.8818359,0.844162,1.7075806,1.3674316,2.4751587c0.5195923,0.762207,1.116272,1.4805908,1.7889557,2.1531982
        c0.6726532,0.6726685,1.3906708,1.2692871,2.1529083,1.7891846c0.7676086,0.5233154,1.593338,0.9797363,2.475769,1.368042
        c0.8733521,0.3840332,1.7716522,0.6712646,2.6923523,0.8598022c0.9204102,0.1884766,1.8907013,0.2831421,2.9094849,0.2831421
        h39.4081116c1.0193176,0,1.9927368-0.0946655,2.918808-0.2831421c0.9436493-0.1921997,1.8549957-0.4790649,2.7326202-0.8598022
        c0.8727722-0.3790283,1.7061462-0.8374023,2.4990234-1.3736572l0.002533,0.0039673
        c0.76651-0.5189819,1.4850616-1.1137085,2.1543274-1.7821655l0.0053864-0.0053711
        c0.6624603-0.663269,1.2574615-1.3815918,1.7835693-2.1534424c0.5232697-0.7677002,0.97995-1.5933838,1.3679962-2.4749146
        l0.0019836,0.0007935c0.3815613-0.8691406,0.6678467-1.7674561,0.8574524-2.6934814
        c0.1885376-0.9204102,0.2832031-1.8903809,0.2832031-2.9089355v-9.5838623c0-1.0183105-0.0946655-1.9882812-0.2828674-2.9086304
        c-0.1885376-0.9207153-0.4753723-1.8190308-0.8597717-2.6932983c-0.3880463-0.8818359-0.8447266-1.7075195-1.3679962-2.4752197
        c-0.5198822-0.762207-1.1165619-1.4804688-1.7889557-2.152832c-0.651947-0.6519775-1.3407745-1.227417-2.0653076-1.7265625
        c-0.0309143-0.0175781-0.0615234-0.0368652-0.0915527-0.0570068c-0.792572-0.5360107-1.6259766-0.9943848-2.4990234-1.3731079
        c-1.755249-0.7622681-3.6394043-1.1434937-5.6514282-1.1434937h-39.4081116c-1.0187836,0-1.9890747,0.0947266-2.9094849,0.2832031
        s-1.8187103,0.4755859-2.6923523,0.8602905c-0.8827057,0.3880615-1.7084351,0.8444214-2.475769,1.3673706
        c-0.7733154,0.5275879-1.4918823,1.1226196-2.1529083,1.7839355l-0.0054169,0.0053711
        c-0.6612854,0.6610107-1.2562866,1.3790283-1.7835388,2.1525879c-0.522995,0.767334-0.9793701,1.5931396-1.3674316,2.4754639
        C93.6870117,19.3223877,93.3057556,21.1901855,93.3057556,23.1920166L93.3057556,23.1920166z M203.5204773,55.9672852
        c-1.5627441,0-3.0977173-0.1550293-4.6043091-0.4642944c-1.4986877-0.3078613-2.9511414-0.7687378-4.3554688-1.3825073
        c-1.4042969-0.6134033-2.7167358-1.3314209-3.9358826-2.1529541c-1.2217407-0.8231201-2.365509-1.7608643-3.429657-2.8110352
        c-1.0649414-1.052002-2.015686-2.1900635-2.8511047-3.4126587c-0.8328247-1.2188721-1.5558777-2.5296021-2.168457-3.9313354
        c-0.6140137-1.4051514-1.0755005-2.8638306-1.3827515-4.3744507c-0.3092651-1.5202026-0.464325-3.0750122-0.464325-4.6621704
        v-9.5838623c0-1.5631104,0.1550598-3.0980225,0.464325-4.6046143c0.3078308-1.4987183,0.769043-2.9508667,1.3827515-4.3551636
        c0.6137085-1.4046021,1.3316956-2.7172852,2.1534729-3.9361572c0.8234253-1.2217407,1.7611389-2.3650513,2.8113708-3.428894
        c1.0510864-1.0646973,2.1886597-2.015625,3.4112549-2.8510132c1.2189026-0.8330688,2.5299072-1.5565796,3.9322205-2.1690674
        c1.4051208-0.6139526,2.8638306-1.0751953,4.3743896-1.3825073C200.3782349,0.1550903,201.9328003,0,203.5204773,0h32.2021484
        c0.7826538,0,1.4172668,0.6346436,1.4172668,1.4173584v5.8272095c0,0.7826538-0.634613,1.4172974-1.4172668,1.4172974h-32.2021484
        c-1.9607544,0-3.819397,0.3812256-5.574646,1.1434937c-0.8852234,0.3840942-1.7205811,0.8393555-2.5041199,1.3637695
        c-0.7744141,0.5181885-1.4958191,1.1055298-2.162262,1.7603149c-0.6613464,0.6496582-1.2548828,1.3563232-1.778717,2.1191406
        c-0.5238647,0.7628174-0.97995,1.5848389-1.3668823,2.465332c-0.3835144,0.8713379-0.6706543,1.7648315-0.8602905,2.6781006
        c-0.1888123,0.9094238-0.2832031,1.8587646-0.2832031,2.8466187v9.7372437c0,0.9921875,0.0946655,1.9462891,0.2832031,2.861084
        c0.190155,0.9228516,0.4770508,1.8260498,0.8602905,2.7076416l0.0289307,0.071167
        c0.3781433,0.8608398,0.8226013,1.6738281,1.3337097,2.4375c0.5184326,0.7752686,1.1063232,1.4969482,1.7611389,2.1635742
        c0.6604919,0.6724854,1.367157,1.2674561,2.1186218,1.7836304l0.0036926,0.0025024l0.0016785-0.0025024
        c0.7546082,0.5187378,1.57547,0.9730835,2.4601746,1.3626099c0.8716431,0.3832397,1.7654419,0.670166,2.6793213,0.8598022
        c0.9093628,0.1887817,1.8580933,0.2831421,2.8453979,0.2831421h26.068573c0.9924011,0,1.9462585-0.0946655,2.8609924-0.2831421
        c0.9297485-0.1917114,1.835144-0.4788208,2.7133179-0.8598022c0.8855286-0.3843384,1.7209473-0.8395996,2.504425-1.3640137
        c0.7744141-0.5181885,1.4958496-1.1057739,2.1625366-1.760376c0.6610718-0.6496582,1.254364-1.3563232,1.7781982-2.1191406
        c0.5238037-0.7625122,0.9799194-1.585083,1.367157-2.4655762c0.3834839-0.8717041,0.6706238-1.7651367,0.86026-2.6790771
        c0.1885376-0.9089966,0.2832336-1.8583374,0.2832336-2.8461914v-0.8059082h-22.8112488
        c-0.7826538,0-1.4173279-0.6346436-1.4173279-1.4172974v-5.8269043c0-0.7826538,0.6346741-1.4172974,1.4173279-1.4172974h30.0554504
        c0.7826233,0,1.4173279,0.6346436,1.4173279,1.4172974v7.8972778c0,1.5628052-0.1550903,3.0982666-0.4645996,4.6046143
        c-0.3078613,1.4990234-0.769043,2.9511719-1.3824463,4.3551025c-0.6137085,1.4042969-1.3317261,2.7167969-2.1535034,3.9359131
        c-0.8229065,1.2214355-1.7600098,2.3647461-2.8110962,3.4294434c-1.0514221,1.0646973-2.1889038,2.015686-3.411499,2.8510742
        c-1.2189026,0.8330688-2.5302429,1.5561523-3.9319763,2.168457c-1.4053955,0.6140137-2.8640747,1.0751953-4.3746643,1.3825073
        c-1.5202332,0.3092651-3.0747375,0.4642944-4.6618652,0.4642944H203.5204773L203.5204773,55.9672852z M269.2232971,49.1074829
        c-1.0238647-1.0336304-1.9462891-2.1538086-2.7651978-3.3590698c-0.8381958-1.2333984-1.561615-2.5460815-2.1684875-3.9359131
        c-0.6137085-1.4051514-1.0748901-2.8641357-1.3822021-4.3744507c-0.3095093-1.5202026-0.4645691-3.074707-0.4645691-4.6621704
        V1.4173584C262.4428406,0.6346436,263.0775146,0,263.8601379,0h5.8265991c0.7826538,0,1.4173584,0.6346436,1.4173584,1.4173584
        v31.3585205c0,0.9918213,0.0946655,1.9454346,0.2831421,2.8598633c0.1916809,0.9300537,0.4790649,1.8354492,0.8603516,2.7142334
        c0.3843994,0.8855591,0.8395996,1.7209473,1.3637695,2.5046387c0.5181274,0.7741699,1.1051941,1.4956055,1.7600098,2.1622314
        c0.6516724,0.6628418,1.3580933,1.2567139,2.1177368,1.7794189l0.0008545-0.0012207
        c0.7628479,0.5239258,1.5851746,0.9805908,2.466156,1.368042c0.8739319,0.3840332,1.771637,0.6709595,2.692627,0.8598022
        c0.9201355,0.1884766,1.8904419,0.2831421,2.9092102,0.2831421h21.8503113c0.9926453,0,1.9468079-0.0946655,2.8615723-0.2831421
        c0.9283142-0.1913452,1.8323059-0.4779663,2.7090759-0.8578491l-0.000885-0.0019531
        c0.8952026-0.388916,1.7322693-0.8438721,2.509552-1.3640137c0.7744141-0.5181885,1.4957886-1.1057739,2.1622314-1.760376
        c0.6723633-0.6604004,1.2673645-1.3670654,1.7835693-2.1185303c0.513916-0.7481689,0.9685974-1.5710449,1.3626404-2.4661865
        c0.3846436-0.875,0.6717834-1.7670898,0.8597107-2.673584l0.0011597-0.0054932l-0.0011597-0.0002441
        c0.1885376-0.9089966,0.2832031-1.8583984,0.2832031-2.8459473V1.4173584C321.9389343,0.6346436,322.5736084,0,323.3562317,0
        h5.8272095c0.7826538,0,1.4172974,0.6346436,1.4172974,1.4173584v31.3585205c0,3.2062988-0.6159668,6.2186279-1.8473511,9.0366211
        c-0.6074219,1.3900757-1.3305969,2.7025146-2.1684875,3.9359131c-0.8398743,1.2359009-1.7880859,2.3822021-2.8431702,3.4372559
        l0.0028381,0.0028076c-1.032074,1.0321655-2.160553,1.9624634-3.383728,2.7893066
        c-1.2052307,0.8146973-2.5108948,1.5296021-3.9154663,2.1427002c-1.4051208,0.6140137-2.8638611,1.0751953-4.3744202,1.3825073
        c-1.5207825,0.3092651-3.0750122,0.4642944-4.6626892,0.4642944h-21.6972351c-1.6081238,0-3.1807861-0.1550293-4.7148743-0.4642944
        c-1.5289917-0.3084106-2.9959412-0.7695923-4.3979492-1.3825073c-1.4045715-0.6134033-2.7104797-1.3282471-3.9166565-2.1433105
        c-1.2225952-0.8264771-2.3513184-1.7568359-3.3831482-2.7886963
        C269.2720337,49.1621094,269.2471008,49.1352539,269.2232971,49.1074829L269.2232971,49.1074829z M355.1825256,12.9929199
        c-0.6417847,0.6500244-1.2180481,1.3521729-1.7286072,2.1066895c-0.5283508,0.7810059-0.9785156,1.6060791-1.3487244,2.4738159
        c-0.3684692,0.8640137-0.6459961,1.7639771-0.8319702,2.6991577c-0.1856384,0.9351807-0.2789307,1.9088135-0.2789307,2.9194336
        v0.4993896h36.6437988c0.7826233,0,1.4172974,0.6347046,1.4172974,1.4173584v5.8265381
        c0,0.7827148-0.6346741,1.4173584-1.4172974,1.4173584h-36.6437988v0.5760498c0,1.9510498,0.3812866,3.7935791,1.1435242,5.5252686
        c0.394043,0.8951416,0.8484192,1.7178345,1.3626404,2.4661865l0.0016479,0.0025635l0.0037231-0.0025635
        c0.5235596,0.7624512,1.1165771,1.4688721,1.7778931,2.1185303c0.666687,0.6547852,1.3875122,1.2421875,2.1619873,1.760376
        c0.783783,0.5244141,1.6191406,0.9796753,2.5046997,1.3640137c0.8784485,0.3812256,1.7835083,0.6680908,2.713562,0.8598022
        c0.9147339,0.1884766,1.8686218,0.2831421,2.8604736,0.2831421h44.8528442c0.7826843,0,1.4172974,0.6346436,1.4172974,1.4173584
        v5.8265381c0,0.7827148-0.634613,1.4173584-1.4172974,1.4173584h-44.8528442c-1.5871277,0-3.1419067-0.1550293-4.6621704-0.4642944
        c-1.5105591-0.307312-2.9692993-0.7684937-4.3743896-1.3825073c-1.4017334-0.6123047-2.7130432-1.3353882-3.9319763-2.168457
        c-1.2225647-0.8353882-2.3601379-1.786377-3.4114685-2.8510742c-1.0505371-1.0644531-1.9879761-2.208252-2.8111572-3.4294434
        c-0.8217163-1.2191162-1.5397339-2.5316162-2.1534424-3.9359131c-0.6134033-1.4039307-1.0743408-2.8564453-1.3824463-4.3551025
        c-0.3092651-1.5065918-0.464325-3.0418091-0.464325-4.6046143v-9.5838623c0-1.5871582,0.1550598-3.1419678,0.464325-4.6621704
        c0.3078003-1.5109253,0.7687378-2.9695435,1.3824463-4.3744507c0.6125793-1.4019775,1.3359375-2.7133789,2.1690674-3.9324951
        c0.835083-1.22229,1.7858276-2.3598022,2.850769-3.4108887c1.0644531-1.0505371,2.2076416-1.9880371,3.4290771-2.8114014
        c1.2191772-0.8217773,2.5316162-1.5397949,3.9359436-2.1535034c1.404541-0.6137085,2.85672-1.074646,4.3554382-1.3825073
        C362.4264221,0.1550903,363.9617004,0,365.5244446,0h44.8528442c0.7826843,0,1.4172974,0.6346436,1.4172974,1.4173584v5.8272095
        c0,0.7826538-0.634613,1.4172974-1.4172974,1.4172974h-44.8528442c-1.0108337,0-1.9845581,0.0932617-2.9194031,0.2789307
        c-0.934906,0.1859741-1.8348694,0.463501-2.6983032,0.8319702c-0.8679504,0.3699341-1.6934204,0.8200073-2.4740601,1.3481445
        c-0.7701721,0.5210571-1.4958801,1.1224976-2.176178,1.8028564
        C355.2324219,12.947876,355.2077332,12.9708252,355.1825256,12.9929199L355.1825256,12.9929199z"/>
    </symbol>

    <symbol id="otter" viewBox="0 0 340.1568909 86.9725952">
        <path d="M52.822094,0.0958c10.7553978,0,19.115696,2.3564,25.0004005,7.3941998
        c2.9442978,2.5205002,4.5966949,5.9484997,5.0141983,10.2733002c0.4175034,4.3213997-0.4020004,9.5606995-2.5072021,15.6937008
        c-1.9638977,5.7228966-4.6408997,10.7163963-7.9219971,14.9442978c-3.2949982,4.2448006-7.2723007,7.7257996-11.8823013,10.4734001
        c-9.1975975,5.4810982-19.1136971,8.3292961-29.6149979,8.5079002c-10.9012012,0.185997-19.3819008-2.4123001-25.4720993-7.8375015
        c-3.0299001-2.6991005-4.8336-6.2460976-5.3053002-10.5864983c-0.4728-4.3404999,0.3175-9.5208015,2.3614998-15.5015984
        c2.0976999-6.1361008,4.8084002-11.3613014,8.1763-15.6937008c3.3539-4.3137999,7.383399-7.7383003,12.0640001-10.2733002
        C32.0069923,2.467,42.0296936,0.0958,52.822094,0.0958L52.822094,0.0958z M34.9801941,46.4794006
        c1.2714005,0,2.5438004,0,3.8514977,0c2.1441002,0,4.2131004-0.7695999,6.286602-2.3148003
        c2.0681992-1.5419998,3.4015999-3.3970032,4.142601-5.5494003c1.256897-3.6492996,2.5210991-7.2944012,3.7785988-10.9525013
        c0.7403984-2.1520996,0.6015015-3.9993992-0.3992004-5.5326996c-0.9972-1.5277996-2.5438004-2.2959995-4.6879005-2.2959995
        c-1.3082008,0-2.5797997,0-3.8513985,0c-2.1072998,0-4.1984024,0.7798004-6.2138023,2.2959995
        c-2.0536995,1.5452003-3.4384995,3.3806-4.1785965,5.5326996c-1.2577019,3.6581001-2.522501,7.3023014-3.7797012,10.9525013
        c-0.7406998,2.1523972-0.5657997,4.0014,0.3999996,5.5494003C31.2888947,45.7038002,32.8726921,46.4794006,34.9801941,46.4794006
        L34.9801941,46.4794006z M131.3833923,19.3642998l-15.6257019,45.5677986H88.3588943l15.6259995-45.5677986
        c-6.0685043,0-12.172905,0-18.2413025,0C87.92379,12.9446993,90.1406937,6.5242,92.3205948,0.0958
        c6.0683975,0,12.1735992,0,18.2417984,0c9.1202011,0,18.2771912,0,27.3979034,0c6.0684967,0,12.1368866,0,18.2052917,0
        c-2.1800995,6.4284-4.3970947,12.8488989-6.5769958,19.2684994
        C143.5201874,19.3642998,137.4517975,19.3642998,131.3833923,19.3642998L131.3833923,19.3642998z M195.8097839,19.3642998
        c6.105011,0,12.1734009,0,18.241806,0C216.2313843,12.9446993,218.4483948,6.5242,220.6284943,0.0958
        c-6.0684052,0-12.1368103,0-18.241806,0c-9.1201019,0-18.2778015,0-27.3618927,0c-6.1045074,0-12.1729126,0-18.2413025,0
        c-2.1807098,6.4284-4.3968048,12.8488989-6.5769043,19.2684994c6.0684052,0,12.136795,0,18.2411957,0l-15.6259918,45.5677986
        h27.3619995L195.8097839,19.3642998L195.8097839,19.3642998z M221.2098846,0.0958c19.1863098,0,38.3718109,0,57.5580902,0
        c-2.1801758,6.4284-4.3967896,12.8488989-6.5769958,19.2684994c-10.0651855,0-20.0947876,0-30.1234894,0
        c-0.6539001,1.8617992-1.308197,3.7229996-1.9255066,5.5847988c8.321106,0,16.6782074,0,25.0361176,0
        c-1.8530273,5.4281006-3.7426147,10.8561001-5.596405,16.2842007c-8.3571014,0-16.7151031,0-25.0362091,0
        c-0.5088043,1.4700012-1.0173035,2.9400978-1.4898987,4.410099c10.0292969,0,20.0585022,0,30.1240997,0
        c-2.2170105,6.4286995-4.4336853,12.8580017-6.6138,19.2775993c-19.1862946,0-38.3717957,0-57.5581055,0
        c3.7061005-10.8040009,7.4126129-21.6091003,11.1187134-32.4121971
        C213.832489,21.7039986,217.5398865,10.8997002,221.2098846,0.0958L221.2098846,0.0958z M279.3862,0
        c-1.2356262,3.6717-2.5072021,7.3422999-3.7794189,11.0128994c-1.5258789,4.4455004-3.0355835,8.896801-4.541687,13.3267994
        c-1.5097046,4.4416008-3.0526123,8.882-4.5784912,13.3185005c-2.8348999,8.2205009-5.6486206,16.4446983-8.4668274,24.661499
        c-2.8136902,8.2059975-5.6324921,16.4411964-8.4307861,24.6528969c8.9755859,0,17.9874878,0,26.9988098,0
        c2.1075745-6.2279968,4.2513733-12.4565964,6.3955994-18.6851959c2.144104-6.2285004,4.2514038-12.4570999,6.3954773-18.6939011
        c0.5814209,0,1.1632996,0,1.7082214,0.0082016c0.5812988,0.0079994,1.1987,0.0263977,1.7440796,0.0263977
        c1.198822,5.0974998,2.4344177,10.1948013,3.6332092,15.2929001c9.5935974,0,19.1502991,0,28.7789917,0
        c-1.6712952-6.7416-3.269989-13.4832993-4.8688049-20.2336998c1.2716064-0.7395973,2.5404053-1.5632973,3.8157043-2.4445992
        c3.4837952-2.4071999,6.5175171-5.1225014,9.084198-8.1949997c2.5563049-3.0590992,4.4204102-6.2903004,5.5956116-9.7162991
        c1.2951965-3.7763004,1.6171875-7.3632011,0.9454041-10.7518005c-0.671814-3.3867998-2.2142029-6.3106995-4.6513977-8.7686996
        C332.296875,1.9198999,328.2599792,0.3991,323.1000977,0.2352C317.9041748,0.07,312.3078003,0,306.3851013,0
        c-4.2882996,0-8.5397034,0-12.8276062,0C288.8334961,0,284.0732727,0,279.3862,0L279.3862,0z M308.2740784,28.2108994
        c-0.5813904,1.6702003-1.8183899,3.0697002-3.7428894,4.2366982c-1.8895874,1.1459999-3.9243164,1.7223015-6.0314941,1.7223015
        c-1.308197,0-2.5439148,0-3.8155212,0c1.1628113-3.3575993,2.2881165-6.7078991,3.4518127-10.0734997
        c1.1613159-3.3575993,2.3255005-6.7416,3.452301-10.1255999c1.2716064,0,2.5432129,0,3.8153992,0
        c2.1072998,0,3.7669983,0.5944004,4.8688049,1.7572002c1.1142883,1.1768999,1.4002991,2.5607996,0.8356934,4.1838999
        C310.1474915,22.6725998,309.2191772,25.4452,308.2740784,28.2108994z"/>
    </symbol>

    <symbol id="falcon-2" viewBox="0 0 476.22 56.11">
        <path d="M0,56.11l14.01-36.04C18.68,8.08,32.02,0.35,48.79,0.35h45.45L87.79,14.9H50.25c-3.55,0-6.28,6.13-4.18,6.13
        h39.01l-5.9,13.33H40.15l-9.64,21.75H0L0,56.11z M116.93,9.2c-11.21,0-29.88,5.53-31.9,21.89c-0.7,5.67,5.33,15.19,16.7,15.19h17.46
        l4.71-10.59h-8.92c-10.86,0-6.22-15.4,6.54-15.4h13.66L123.8,46.28h21.63L161.79,9.2H116.93L116.93,9.2z M171.08,0l-20.46,46.28
        h23.52L194.53,0H171.08L171.08,0z M235.34,46.29l5.85-13.14h-22.41c-5.88,0-6.12-2.91-5.77-4.61c0.6-2.93,3.98-5.84,10.33-5.84
        l22.42,0.01l6.59-14.93h-29.48c-14.19,0-28.89,6.65-34.13,15.47c-7.32,12.33,1.54,23.04,12.23,23.04L235.34,46.29L235.34,46.29z
         M282.14,7.27c-21.07,2.25-37.28,12.7-36.2,23.34c1.07,10.64,19.02,17.45,40.09,15.2c21.07-2.25,37.28-12.7,36.21-23.34
        C321.16,11.83,303.22,5.02,282.14,7.27L282.14,7.27z M281.93,22.03c-5.83,1.78-9.85,5.62-8.96,8.57c0.88,2.95,6.33,3.89,12.16,2.11
        c5.83-1.78,9.84-5.62,8.96-8.57C293.21,21.19,287.76,20.25,281.93,22.03L281.93,22.03z M315.15,46.34h26.54l9.37-21.17
        c0.76-1.74,11.15-1.4,10.58-0.01l-9.35,21.18h26.73l9.03-20.28c4.26-9.58-6.1-18.27-19.42-18.27h-36.38L315.15,46.34L315.15,46.34z
         M417.84,17.59h20.89c0.74,0,1.48-0.29,2.22-0.87c0.74-0.58,1.3-1.34,1.66-2.29l1.66-3.56c0.26-0.42,0.63-0.83,1.11-1.23
        c0.48-0.4,0.98-0.59,1.51-0.59h1.34c0.32,0,0.7,0.01,1.15,0.04c0.45,0.02,0.84,0.09,1.19,0.2c0.34,0.1,0.61,0.28,0.79,0.51
        c0.18,0.24,0.2,0.57,0.04,0.99l-4.75,10.92c-0.58,0.9-1.11,1.46-1.58,1.7c-0.47,0.24-1.03,0.38-1.66,0.44h-22.79
        c-1.06,0-2.15,0.17-3.29,0.51c-1.13,0.35-2.24,0.83-3.32,1.47c-1.08,0.63-2.04,1.37-2.89,2.22c-0.84,0.84-1.54,1.76-1.98,2.77
        l-8.65,19.61h58.59l4.59-10.27h-29.83c-0.63,0-1.16-0.11-1.58-0.32c-0.42-0.21-0.45-0.76-0.08-1.66l1.58-3.48
        c0.42-0.9,0.87-1.47,1.35-1.7c0.47-0.24,1.08-0.38,1.82-0.44h21.61c0.95,0,2-0.17,3.16-0.51c1.16-0.34,2.28-0.83,3.36-1.46
        c1.08-0.63,2.06-1.37,2.93-2.22c0.87-0.84,1.58-1.75,2.02-2.77l5.69-13.05c2.39-5.48-3.39-12.2-13.44-12.2H428.6
        c-0.63,0-1.37,0.12-2.22,0.36c-0.84,0.23-1.65,0.55-2.41,0.95c-0.77,0.4-1.46,0.86-2.1,1.38c-0.63,0.53-1.08,1.08-1.34,1.66
        l-4.28,9.81c-0.53,1.06-0.54,1.84-0.04,2.34C416.71,17.34,417.25,17.59,417.84,17.59L417.84,17.59z"/>
    </symbol>

</svg>