<?xml version="1.0" encoding="UTF-8"?>
<!DOCTYPE svg PUBLIC "-//W3C//DTD SVG 1.1//EN">
<svg xmlns="http://www.w3.org/2000/svg">

  <symbol id="inspire-2" viewBox="0 0 416.4 42.46">
    <path
      d="M40.427 42.461c.507 0 .922-.23 1.244-.691.322-.461.53-.806.622-1.037l1.313-3.663c.23-.599.368-1.094.415-1.486.046-.391-.184-.633-.691-.725h-9.122c-.461 0-.68-.184-.657-.553.023-.369.057-.737.103-1.106l8.639-23.842c.23-.369.484-.737.76-1.106.277-.369.622-.553 1.037-.553h9.122c.553-.092.956-.334 1.209-.726.253-.392.495-.887.725-1.486l1.313-3.663c.092-.23.138-.576.138-1.037 0-.461-.253-.691-.76-.691H16.102c-.507 0-.899.253-1.175.76s-.53.875-.76 1.106l-1.244 3.524c-.23.599-.368 1.094-.415 1.486-.046.391.184.634.691.726h8.984c.599 0 .944.161 1.037.484.092.323.046.714-.138 1.175l-8.777 24.187c-.415.875-1.083 1.313-2.004 1.313H3.317c-.553.092-.956.334-1.209.725-.253.392-.495.887-.725 1.486L.07 40.662c0 .138-.012.3-.035.484A4.93 4.93 0 000 41.77c0 .184.046.346.138.484.092.138.277.207.553.207h39.736zm47.892 0H74.221c-.23 0-.496-.115-.795-.346-.3-.23-.541-.576-.726-1.037L71.594 26.98l-.346-.207h-.068c-.046 0-.115-.046-.207-.138l-4.699 13.061c-.737 1.843-1.704 2.764-2.902 2.764H47.96c-.553 0-.922-.242-1.106-.726-.184-.484-.092-1.163.276-2.039L60.607 2.656c.276-.783.714-1.405 1.313-1.866.599-.461 1.083-.691 1.451-.691h15.825c.645 0 1.037.852 1.175 2.557l1.037 14.927 5.39-14.858c.323-.783.783-1.417 1.382-1.9.599-.484 1.083-.726 1.451-.726h14.098c.368 0 .702.242 1.002.726.299.484.288 1.117-.035 1.9L91.29 39.697c-.369.875-.818 1.555-1.348 2.039-.529.484-1.07.725-1.623.725zm56.805-27.297c.461 0 1.002-.219 1.624-.656.622-.438 1.117-1.117 1.486-2.039l3.11-8.569c.185-.507.219-.99.104-1.451a2.695 2.695 0 00-.657-1.209 3.622 3.622 0 00-1.175-.83 3.348 3.348 0 00-1.382-.311h-31.927c-.737 0-1.532.15-2.384.449a9.997 9.997 0 00-2.453 1.278 12.169 12.169 0 00-2.142 1.935 7.675 7.675 0 00-1.451 2.419l-5.805 15.964c-.322.875-.438 1.681-.346 2.419.092.737.346 1.382.76 1.935.415.553.933.979 1.555 1.278a4.492 4.492 0 001.97.449h16.862c.507.046.875.173 1.106.38.23.208.184.703-.138 1.486l-1.106 3.041c-.323.829-.875 1.325-1.659 1.486-.783.161-1.405.242-1.866.242H99.307c-.553 0-1.094.253-1.624.76s-.956 1.175-1.278 2.004l-.829 2.281c-.276.783-.276 1.405 0 1.866.276.461.599.691.967.691h34.554c.737 0 1.532-.15 2.384-.449a9.963 9.963 0 002.453-1.278 12.169 12.169 0 002.142-1.935 7.686 7.686 0 001.451-2.419l3.524-9.675c.323-.875.438-1.682.345-2.419-.092-.737-.334-1.382-.726-1.935a3.903 3.903 0 00-1.52-1.278 4.632 4.632 0 00-2.039-.449h-15.756c-.461-.046-.818-.173-1.071-.38-.254-.207-.219-.702.104-1.486l3.386-9.33c.322-.829.875-1.324 1.659-1.486s1.428-.242 1.935-.242h.967c.368 0 .622.173.76.518.138.346.161.703.069 1.071l-1.175 3.11c-.276.829-.334 1.497-.173 2.004.161.507.518.76 1.071.76h14.237zm45.888 8.984c-.277.829-.737 1.612-1.382 2.35a12.169 12.169 0 01-2.142 1.935c-.783.553-1.589.979-2.419 1.278-.829.299-1.612.449-2.35.449h-14.512c-.507-.092-.76-.323-.76-.691 0-.369.115-.852.346-1.451l1.313-3.594c.23-.231.472-.587.726-1.071.253-.484.633-.726 1.14-.726h.967c.553-.046 1.014-.173 1.382-.38.368-.207.691-.702.967-1.486l4.146-11.334c.138-.415.15-.737.035-.967-.115-.23-.311-.403-.587-.518a2.855 2.855 0 00-.899-.207 11.935 11.935 0 00-.829-.035c-.691 0-1.359.173-2.004.518-.645.346-1.06.749-1.244 1.209l-10.988 30.269c-.737 1.843-1.704 2.764-2.902 2.764h-15.411c-.553 0-.921-.242-1.106-.726-.184-.484-.092-1.163.276-2.039l13.476-37.041c.276-.783.714-1.405 1.313-1.866.599-.461 1.083-.691 1.451-.691h34.553c.737 0 1.428.15 2.073.449a3.858 3.858 0 011.555 1.278c.392.553.633 1.198.726 1.935.092.737-.023 1.543-.346 2.419l-6.564 17.97zm38.769 18.313c.507 0 .921-.23 1.244-.691.322-.461.53-.806.622-1.037l1.313-3.663c.23-.599.368-1.094.415-1.486.046-.391-.184-.633-.691-.725h-9.122c-.461 0-.68-.184-.656-.553.023-.369.057-.737.103-1.106l8.639-23.842c.23-.369.484-.737.76-1.106.277-.369.622-.553 1.037-.553h9.122c.553-.092.956-.334 1.21-.726.253-.392.495-.887.725-1.486l1.313-3.663c.092-.23.138-.576.138-1.037 0-.461-.254-.691-.76-.691h-39.736c-.507 0-.899.253-1.175.76s-.53.875-.76 1.106l-1.244 3.524c-.23.599-.368 1.094-.415 1.486-.046.391.185.634.691.726h8.984c.599 0 .944.161 1.037.484.092.323.046.714-.138 1.175l-8.777 24.187c-.415.875-1.083 1.313-2.004 1.313h-8.984c-.553.092-.956.334-1.209.725-.253.392-.495.887-.725 1.486l-1.313 3.594c0 .138-.012.3-.035.484a5.042 5.042 0 00-.035.622c0 .184.046.346.138.484.092.138.277.207.553.207h39.735v.002zm54.871-18.106c-.415 1.198-1.129 2.235-2.142 3.11-1.014.875-1.981 1.52-2.902 1.935.184.415.391.806.622 1.175.23.369.438.76.622 1.175.184.415.288.887.311 1.417.023.53-.104 1.186-.38 1.97l-1.797 4.768c-.323.875-.703 1.52-1.14 1.935-.438.415-.841.622-1.209.622h-14.996c-.368 0-.622-.323-.76-.967-.138-.645-.138-1.175 0-1.589l2.902-7.947c.046-.322.023-.61-.069-.864-.092-.253-.323-.564-.691-.933h-1.105c-.507-.092-.76-.323-.76-.691 0-.369.115-.852.345-1.451l1.313-3.594c.23-.231.472-.587.726-1.071.253-.484.633-.726 1.14-.726h.967c.553-.046 1.014-.173 1.382-.38.368-.207.691-.702.967-1.486l4.146-11.334c.138-.415.15-.737.035-.967-.115-.23-.311-.403-.587-.518a2.855 2.855 0 00-.899-.207 11.935 11.935 0 00-.829-.035c-.691 0-1.359.173-2.004.518-.645.346-1.06.749-1.244 1.209l-10.988 30.269c-.737 1.843-1.704 2.764-2.902 2.764h-15.411c-.553 0-.922-.242-1.106-.726-.184-.484-.092-1.163.276-2.039L249.96 2.656c.276-.783.714-1.405 1.313-1.866.599-.461 1.083-.691 1.451-.691h34.554c.737 0 1.428.15 2.073.449a3.858 3.858 0 011.555 1.278c.392.553.634 1.198.726 1.935.092.737-.023 1.543-.346 2.419l-6.634 18.175zm48.305-9.191c.461 0 1.002-.219 1.624-.656.622-.438 1.117-1.117 1.486-2.039l3.594-9.813c.415-1.198.495-1.924.242-2.177-.253-.253-.841-.38-1.762-.38h-38.354c-.368 0-.852.23-1.451.691-.599.461-1.037 1.083-1.313 1.866l-13.614 37.249c-.276.783-.276 1.405 0 1.866.276.461.599.691.967.691h39.253c.507 0 .898-.242 1.175-.726s.507-.841.691-1.071l1.382-3.663c.23-.599.357-1.083.38-1.451.023-.369-.219-.599-.726-.691h-19.419c-.599 0-1.094-.15-1.486-.449-.392-.299-.564-.634-.518-1.002l1.382-3.87c.23-.553.553-.922.967-1.106.415-.184.922-.276 1.52-.276h15.411a1.44 1.44 0 001.14-.519c.3-.345.564-.772.795-1.278l1.313-3.663c.23-.599.357-1.083.38-1.451.023-.368-.219-.599-.726-.691h-15.756c-.875 0-1.348-.115-1.417-.345-.069-.23-.012-.599.173-1.105l3.663-10.09c.461-.553.795-.898 1.002-1.037.207-.138.61-.208 1.209-.208h2.35c.507.277.668.783.484 1.521l-1.175 3.11c-.276.829-.334 1.497-.173 2.004.161.507.518.76 1.071.76h14.236zm54.504-.09c.553 0 1.095-.253 1.625-.76s.933-1.175 1.21-2.005l1.175-3.112c.184-.369.461-.726.83-1.072.369-.346.738-.519 1.106-.519h.968c.231 0 .507.012.83.035.323.023.611.081.864.173.253.092.449.242.588.45.138.207.138.495 0 .864L393.2 18.67c-.415.784-.795 1.279-1.141 1.487a2.868 2.868 0 01-1.21.38h-16.596c-.738 0-1.533.15-2.385.449-.853.3-1.66.726-2.42 1.279a12.762 12.762 0 00-2.109 1.936 7.694 7.694 0 00-1.452 2.42l-4.425 12.101c-.323.876-.507 1.556-.553 2.04-.046.484.023.853.207 1.106.185.254.473.403.864.45.392.046.911.069 1.556.069h37.409c.369 0 .853-.23 1.452-.691.599-.461 1.037-1.083 1.314-1.867l.83-2.282c.323-.83.403-1.498.242-2.005-.161-.507-.518-.761-1.072-.761h-19.845c-.461 0-.841-.092-1.141-.277-.3-.184-.311-.668-.034-1.452l1.106-3.042c.323-.784.668-1.279 1.037-1.487.369-.207.807-.334 1.314-.38h15.697c.691 0 1.464-.15 2.316-.45a9.99 9.99 0 002.454-1.279 12.148 12.148 0 002.144-1.936 7.694 7.694 0 001.452-2.42l5.809-15.973c.322-.876.438-1.683.346-2.42-.092-.738-.334-1.383-.726-1.936A3.857 3.857 0 00414.084.45a4.867 4.867 0 00-2.075-.45h-31.947c-.461 0-.991.104-1.59.311-.599.208-1.187.484-1.763.83s-1.095.749-1.556 1.21c-.461.461-.784.945-.968 1.452l-3.112 8.574c-.369.922-.38 1.602-.035 2.04.346.438.749.657 1.21.657h15.213zm-37.099 13.044c3.356 0 6.094-2.737 6.094-6.093s-2.737-6.094-6.094-6.094c-3.356 0-6.093 2.737-6.093 6.094 0 3.356 2.737 6.093 6.093 6.093z" />
  </symbol>
</svg>